<svg width="126" height="72" viewBox="0 0 126 72" fill="none" xmlns="http://www.w3.org/2000/svg">
<circle cx="5.98047" cy="6.5" r="5" fill="#F3B17D"/>
<path d="M21.2702 1.54545V11H20.1254V1.54545H21.2702ZM24.5075 6.73438V11H23.4181V3.90909H24.4706V5.01705H24.5629C24.7291 4.65696 24.9815 4.36766 25.32 4.14915C25.6586 3.92756 26.0956 3.81676 26.6311 3.81676C27.1112 3.81676 27.5313 3.91525 27.8914 4.11222C28.2515 4.30611 28.5316 4.60156 28.7316 4.99858C28.9317 5.39252 29.0317 5.8911 29.0317 6.49432V11H27.9422V6.56818C27.9422 6.01113 27.7976 5.57718 27.5083 5.26633C27.219 4.95241 26.8219 4.79545 26.3172 4.79545C25.9694 4.79545 25.6586 4.87086 25.3847 5.02166C25.1138 5.17247 24.8999 5.39252 24.743 5.68182C24.586 5.97112 24.5075 6.32197 24.5075 6.73438ZM33.9032 11.1477C33.2385 11.1477 32.666 10.9908 32.1859 10.6768C31.7058 10.3629 31.3365 9.93052 31.0779 9.37962C30.8194 8.82872 30.6902 8.19934 30.6902 7.49148C30.6902 6.77131 30.8225 6.13577 31.0872 5.58487C31.3549 5.03089 31.7273 4.59848 32.2044 4.28764C32.6845 3.97372 33.2446 3.81676 33.8848 3.81676C34.3833 3.81676 34.8327 3.90909 35.2328 4.09375C35.6329 4.27841 35.9606 4.53693 36.2161 4.86932C36.4715 5.2017 36.63 5.58949 36.6916 6.03267H35.6021C35.519 5.70952 35.3343 5.4233 35.0481 5.17401C34.765 4.92164 34.3833 4.79545 33.9032 4.79545C33.4785 4.79545 33.1061 4.90625 32.786 5.12784C32.469 5.34635 32.2213 5.65566 32.0428 6.05575C31.8674 6.45277 31.7797 6.91903 31.7797 7.45455C31.7797 8.00237 31.8658 8.4794 32.0382 8.88565C32.2136 9.2919 32.4598 9.60736 32.7768 9.83203C33.0969 10.0567 33.4724 10.169 33.9032 10.169C34.1864 10.169 34.4434 10.1198 34.6742 10.0213C34.905 9.92282 35.1004 9.78125 35.2605 9.59659C35.4205 9.41193 35.5344 9.19034 35.6021 8.93182H36.6916C36.63 9.35038 36.4777 9.72739 36.2346 10.0629C35.9945 10.3952 35.676 10.6599 35.2789 10.8569C34.885 11.0508 34.4264 11.1477 33.9032 11.1477ZM41.165 11.1477C40.5248 11.1477 39.9631 10.9954 39.4799 10.6907C38.9998 10.386 38.6243 9.95975 38.3535 9.41193C38.0858 8.86411 37.9519 8.22396 37.9519 7.49148C37.9519 6.75284 38.0858 6.10807 38.3535 5.55717C38.6243 5.00627 38.9998 4.57848 39.4799 4.27379C39.9631 3.96911 40.5248 3.81676 41.165 3.81676C41.8051 3.81676 42.3652 3.96911 42.8453 4.27379C43.3285 4.57848 43.704 5.00627 43.9718 5.55717C44.2426 6.10807 44.378 6.75284 44.378 7.49148C44.378 8.22396 44.2426 8.86411 43.9718 9.41193C43.704 9.95975 43.3285 10.386 42.8453 10.6907C42.3652 10.9954 41.8051 11.1477 41.165 11.1477ZM41.165 10.169C41.6512 10.169 42.0513 10.0444 42.3652 9.7951C42.6792 9.54581 42.9115 9.21804 43.0623 8.81179C43.2131 8.40554 43.2885 7.96544 43.2885 7.49148C43.2885 7.01752 43.2131 6.57588 43.0623 6.16655C42.9115 5.75722 42.6792 5.42637 42.3652 5.17401C42.0513 4.92164 41.6512 4.79545 41.165 4.79545C40.6787 4.79545 40.2786 4.92164 39.9647 5.17401C39.6507 5.42637 39.4184 5.75722 39.2676 6.16655C39.1168 6.57588 39.0414 7.01752 39.0414 7.49148C39.0414 7.96544 39.1168 8.40554 39.2676 8.81179C39.4184 9.21804 39.6507 9.54581 39.9647 9.7951C40.2786 10.0444 40.6787 10.169 41.165 10.169ZM46.0411 11V3.90909H47.0937V5.01705H47.186C47.3337 4.63849 47.5722 4.34458 47.9015 4.1353C48.2309 3.92294 48.6263 3.81676 49.088 3.81676C49.5558 3.81676 49.9451 3.92294 50.2559 4.1353C50.5699 4.34458 50.8145 4.63849 50.99 5.01705H51.0638C51.2454 4.6508 51.5178 4.35997 51.8809 4.14453C52.2441 3.92602 52.6796 3.81676 53.1874 3.81676C53.8214 3.81676 54.34 4.01527 54.7432 4.41229C55.1463 4.80623 55.3479 5.42022 55.3479 6.25426V11H54.2584V6.25426C54.2584 5.73106 54.1153 5.35713 53.8291 5.13246C53.5429 4.90779 53.2059 4.79545 52.8181 4.79545C52.3195 4.79545 51.9333 4.94626 51.6594 5.24787C51.3854 5.5464 51.2485 5.92495 51.2485 6.38352V11H50.1405V6.14347C50.1405 5.74029 50.0097 5.4156 49.7481 5.16939C49.4865 4.9201 49.1495 4.79545 48.7371 4.79545C48.454 4.79545 48.1893 4.87086 47.9431 5.02166C47.7 5.17247 47.503 5.38175 47.3522 5.6495C47.2045 5.91418 47.1306 6.22041 47.1306 6.56818V11H46.0411ZM57.3399 13.6591V3.90909H58.3925V5.03551H58.5218C58.6018 4.91241 58.7126 4.75544 58.8541 4.56463C58.9988 4.37074 59.205 4.19839 59.4727 4.04759C59.7436 3.8937 60.1098 3.81676 60.5715 3.81676C61.1685 3.81676 61.6948 3.96603 62.1503 4.26456C62.6058 4.56309 62.9613 4.98627 63.2167 5.53409C63.4722 6.08191 63.5999 6.72822 63.5999 7.47301C63.5999 8.22396 63.4722 8.87488 63.2167 9.42578C62.9613 9.9736 62.6073 10.3983 62.1549 10.6999C61.7025 10.9985 61.1808 11.1477 60.5899 11.1477C60.1344 11.1477 59.7697 11.0723 59.4958 10.9215C59.2219 10.7676 59.0111 10.5937 58.8634 10.3999C58.7156 10.2029 58.6018 10.0398 58.5218 9.91051H58.4294V13.6591H57.3399ZM58.411 7.45455C58.411 7.99006 58.4894 8.46248 58.6464 8.8718C58.8034 9.27805 59.0326 9.59659 59.3343 9.82741C59.6359 10.0552 60.0052 10.169 60.4422 10.169C60.8977 10.169 61.2778 10.049 61.5825 9.80895C61.8902 9.56581 62.1211 9.23958 62.2749 8.83026C62.4319 8.41785 62.5104 7.95928 62.5104 7.45455C62.5104 6.95597 62.4334 6.50663 62.2796 6.10653C62.1288 5.70336 61.8995 5.38482 61.5917 5.15092C61.287 4.91394 60.9039 4.79545 60.4422 4.79545C59.999 4.79545 59.6266 4.90779 59.325 5.13246C59.0234 5.35405 58.7957 5.66489 58.6418 6.06499C58.4879 6.462 58.411 6.92519 58.411 7.45455ZM66.3513 1.54545V11H65.2618V1.54545H66.3513ZM71.3198 11.1477C70.6365 11.1477 70.0472 10.9969 69.5517 10.6953C69.0592 10.3906 68.6792 9.96591 68.4114 9.42116C68.1467 8.87334 68.0144 8.23627 68.0144 7.50994C68.0144 6.78362 68.1467 6.14347 68.4114 5.58949C68.6792 5.03243 69.0516 4.59848 69.5286 4.28764C70.0087 3.97372 70.5688 3.81676 71.209 3.81676C71.5783 3.81676 71.943 3.87831 72.3031 4.00142C72.6632 4.12453 72.9909 4.32457 73.2864 4.60156C73.5819 4.87547 73.8173 5.23864 73.9927 5.69105C74.1681 6.14347 74.2559 6.70052 74.2559 7.36222V7.82386H68.79V6.8821H73.1479C73.1479 6.48201 73.0679 6.125 72.9078 5.81108C72.7509 5.49716 72.5262 5.24941 72.2338 5.06783C71.9445 4.88625 71.6029 4.79545 71.209 4.79545C70.775 4.79545 70.3996 4.90317 70.0826 5.11861C69.7686 5.33097 69.527 5.60795 69.3578 5.94957C69.1885 6.29119 69.1039 6.65743 69.1039 7.0483V7.67614C69.1039 8.21165 69.1962 8.6656 69.3809 9.038C69.5686 9.40732 69.8287 9.68892 70.161 9.88281C70.4934 10.0736 70.8797 10.169 71.3198 10.169C71.606 10.169 71.8645 10.129 72.0953 10.049C72.3292 9.96591 72.5308 9.8428 72.7001 9.67969C72.8694 9.51349 73.0002 9.30729 73.0925 9.06108L74.1451 9.35653C74.0343 9.71354 73.8481 10.0275 73.5865 10.2983C73.3249 10.5661 73.0017 10.7753 72.617 10.9261C72.2323 11.0739 71.7999 11.1477 71.3198 11.1477ZM78.997 3.90909V4.83239H75.3223V3.90909H78.997ZM76.3933 2.21023H77.4828V8.96875C77.4828 9.27652 77.5274 9.50734 77.6167 9.66122C77.709 9.81203 77.8259 9.91359 77.9675 9.96591C78.1122 10.0152 78.2645 10.0398 78.4245 10.0398C78.5446 10.0398 78.6431 10.0336 78.72 10.0213C78.7969 10.0059 78.8585 9.99361 78.9047 9.98438L79.1262 10.9631C79.0524 10.9908 78.9493 11.0185 78.8169 11.0462C78.6846 11.0769 78.5169 11.0923 78.3137 11.0923C78.006 11.0923 77.7044 11.0262 77.4089 10.8938C77.1165 10.7615 76.8734 10.5599 76.6795 10.2891C76.4887 10.0182 76.3933 9.67661 76.3933 9.2642V2.21023ZM83.5327 11.1477C82.8494 11.1477 82.2601 10.9969 81.7646 10.6953C81.2721 10.3906 80.892 9.96591 80.6243 9.42116C80.3596 8.87334 80.2273 8.23627 80.2273 7.50994C80.2273 6.78362 80.3596 6.14347 80.6243 5.58949C80.892 5.03243 81.2644 4.59848 81.7415 4.28764C82.2216 3.97372 82.7817 3.81676 83.4219 3.81676C83.7912 3.81676 84.1559 3.87831 84.516 4.00142C84.8761 4.12453 85.2038 4.32457 85.4993 4.60156C85.7947 4.87547 86.0302 5.23864 86.2056 5.69105C86.381 6.14347 86.4688 6.70052 86.4688 7.36222V7.82386H81.0028V6.8821H85.3608C85.3608 6.48201 85.2808 6.125 85.1207 5.81108C84.9638 5.49716 84.7391 5.24941 84.4467 5.06783C84.1574 4.88625 83.8158 4.79545 83.4219 4.79545C82.9879 4.79545 82.6125 4.90317 82.2955 5.11861C81.9815 5.33097 81.7399 5.60795 81.5707 5.94957C81.4014 6.29119 81.3168 6.65743 81.3168 7.0483V7.67614C81.3168 8.21165 81.4091 8.6656 81.5938 9.038C81.7815 9.40732 82.0415 9.68892 82.3739 9.88281C82.7063 10.0736 83.0926 10.169 83.5327 10.169C83.8189 10.169 84.0774 10.129 84.3082 10.049C84.5421 9.96591 84.7437 9.8428 84.913 9.67969C85.0823 9.51349 85.2131 9.30729 85.3054 9.06108L86.358 9.35653C86.2472 9.71354 86.061 10.0275 85.7994 10.2983C85.5378 10.5661 85.2146 10.7753 84.8299 10.9261C84.4452 11.0739 84.0128 11.1477 83.5327 11.1477Z" fill="white"/>
<circle cx="5.98047" cy="35.5" r="5" fill="#E77D76"/>
<path d="M20.1254 40V30.5455H23.32C24.0617 30.5455 24.668 30.6793 25.1388 30.9471C25.6128 31.2118 25.9637 31.5703 26.1914 32.0227C26.4192 32.4751 26.533 32.9799 26.533 33.5369C26.533 34.094 26.4192 34.6003 26.1914 35.0558C25.9667 35.5112 25.619 35.8744 25.1481 36.1452C24.6772 36.413 24.074 36.5469 23.3384 36.5469H21.0487V35.5312H23.3015C23.8093 35.5312 24.2171 35.4435 24.5249 35.2681C24.8326 35.0927 25.0558 34.8557 25.1942 34.5572C25.3358 34.2556 25.4066 33.9155 25.4066 33.5369C25.4066 33.1584 25.3358 32.8198 25.1942 32.5213C25.0558 32.2228 24.8311 31.9889 24.5202 31.8196C24.2094 31.6473 23.797 31.5611 23.283 31.5611H21.2702V40H20.1254ZM31.1264 40.1477C30.4432 40.1477 29.8538 39.9969 29.3583 39.6953C28.8659 39.3906 28.4858 38.9659 28.218 38.4212C27.9534 37.8733 27.821 37.2363 27.821 36.5099C27.821 35.7836 27.9534 35.1435 28.218 34.5895C28.4858 34.0324 28.8582 33.5985 29.3352 33.2876C29.8153 32.9737 30.3755 32.8168 31.0156 32.8168C31.3849 32.8168 31.7496 32.8783 32.1097 33.0014C32.4698 33.1245 32.7976 33.3246 33.093 33.6016C33.3885 33.8755 33.6239 34.2386 33.7994 34.6911C33.9748 35.1435 34.0625 35.7005 34.0625 36.3622V36.8239H28.5966V35.8821H32.9545C32.9545 35.482 32.8745 35.125 32.7145 34.8111C32.5575 34.4972 32.3329 34.2494 32.0405 34.0678C31.7512 33.8862 31.4096 33.7955 31.0156 33.7955C30.5817 33.7955 30.2062 33.9032 29.8892 34.1186C29.5753 34.331 29.3337 34.608 29.1644 34.9496C28.9951 35.2912 28.9105 35.6574 28.9105 36.0483V36.6761C28.9105 37.2116 29.0028 37.6656 29.1875 38.038C29.3752 38.4073 29.6353 38.6889 29.9677 38.8828C30.3001 39.0736 30.6863 39.169 31.1264 39.169C31.4126 39.169 31.6712 39.129 31.902 39.049C32.1359 38.9659 32.3375 38.8428 32.5067 38.6797C32.676 38.5135 32.8068 38.3073 32.8991 38.0611L33.9517 38.3565C33.8409 38.7135 33.6547 39.0275 33.3931 39.2983C33.1315 39.5661 32.8084 39.7753 32.4237 39.9261C32.0389 40.0739 31.6065 40.1477 31.1264 40.1477ZM36.8093 35.7344V40H35.7198V32.9091H36.7724V34.017H36.8647C37.0309 33.657 37.2833 33.3677 37.6218 33.1491C37.9603 32.9276 38.3974 32.8168 38.9329 32.8168C39.413 32.8168 39.8331 32.9152 40.1932 33.1122C40.5533 33.3061 40.8333 33.6016 41.0334 33.9986C41.2334 34.3925 41.3335 34.8911 41.3335 35.4943V40H40.244V35.5682C40.244 35.0111 40.0993 34.5772 39.81 34.2663C39.5207 33.9524 39.1237 33.7955 38.619 33.7955C38.2712 33.7955 37.9603 33.8709 37.6864 34.0217C37.4156 34.1725 37.2017 34.3925 37.0447 34.6818C36.8878 34.9711 36.8093 35.322 36.8093 35.7344ZM46.0019 40.1477C45.411 40.1477 44.8893 39.9985 44.4369 39.6999C43.9845 39.3983 43.6305 38.9736 43.3751 38.4258C43.1196 37.8749 42.9919 37.224 42.9919 36.473C42.9919 35.7282 43.1196 35.0819 43.3751 34.5341C43.6305 33.9863 43.986 33.5631 44.4415 33.2646C44.897 32.966 45.4233 32.8168 46.0203 32.8168C46.482 32.8168 46.8467 32.8937 47.1144 33.0476C47.3853 33.1984 47.5915 33.3707 47.733 33.5646C47.8777 33.7554 47.99 33.9124 48.07 34.0355H48.1624V30.5455H49.2519V40H48.1993V38.9105H48.07C47.99 39.0398 47.8762 39.2029 47.7284 39.3999C47.5807 39.5937 47.3699 39.7676 47.096 39.9215C46.8221 40.0723 46.4574 40.1477 46.0019 40.1477ZM46.1496 39.169C46.5866 39.169 46.9559 39.0552 47.2575 38.8274C47.5592 38.5966 47.7884 38.2781 47.9454 37.8718C48.1024 37.4625 48.1808 36.9901 48.1808 36.4545C48.1808 35.9252 48.1039 35.462 47.95 35.065C47.7961 34.6649 47.5684 34.354 47.2668 34.1325C46.9652 33.9078 46.5928 33.7955 46.1496 33.7955C45.6879 33.7955 45.3032 33.9139 44.9955 34.1509C44.6908 34.3848 44.4615 34.7034 44.3076 35.1065C44.1568 35.5066 44.0814 35.956 44.0814 36.4545C44.0814 36.9593 44.1584 37.4179 44.3122 37.8303C44.4692 38.2396 44.7 38.5658 45.0047 38.8089C45.3125 39.049 45.6941 39.169 46.1496 39.169ZM51.3985 40V32.9091H52.488V40H51.3985ZM51.9525 31.7273C51.7401 31.7273 51.557 31.6549 51.4031 31.5103C51.2523 31.3656 51.1769 31.1918 51.1769 30.9886C51.1769 30.7855 51.2523 30.6116 51.4031 30.467C51.557 30.3223 51.7401 30.25 51.9525 30.25C52.1649 30.25 52.3464 30.3223 52.4972 30.467C52.6511 30.6116 52.7281 30.7855 52.7281 30.9886C52.7281 31.1918 52.6511 31.3656 52.4972 31.5103C52.3464 31.6549 52.1649 31.7273 51.9525 31.7273ZM55.573 35.7344V40H54.4835V32.9091H55.536V34.017H55.6284C55.7946 33.657 56.0469 33.3677 56.3855 33.1491C56.724 32.9276 57.161 32.8168 57.6966 32.8168C58.1767 32.8168 58.5968 32.9152 58.9569 33.1122C59.3169 33.3061 59.597 33.6016 59.7971 33.9986C59.9971 34.3925 60.0971 34.8911 60.0971 35.4943V40H59.0076V35.5682C59.0076 35.0111 58.863 34.5772 58.5737 34.2663C58.2844 33.9524 57.8874 33.7955 57.3826 33.7955C57.0349 33.7955 56.724 33.8709 56.4501 34.0217C56.1793 34.1725 55.9654 34.3925 55.8084 34.6818C55.6515 34.9711 55.573 35.322 55.573 35.7344ZM64.9502 42.8068C64.4239 42.8068 63.9715 42.7391 63.593 42.6037C63.2144 42.4714 62.8989 42.2959 62.6466 42.0774C62.3973 41.862 62.1988 41.6312 62.051 41.3849L62.9189 40.7756C63.0174 40.9048 63.1421 41.0526 63.2929 41.2188C63.4437 41.388 63.6499 41.5342 63.9115 41.6573C64.1762 41.7835 64.5224 41.8466 64.9502 41.8466C65.5226 41.8466 65.9951 41.7081 66.3675 41.4311C66.7398 41.1541 66.926 40.7202 66.926 40.1293V38.6889H66.8337C66.7537 38.8182 66.6398 38.9782 66.4921 39.169C66.3474 39.3568 66.1382 39.5245 65.8643 39.6722C65.5934 39.8169 65.2272 39.8892 64.7655 39.8892C64.1931 39.8892 63.6791 39.7538 63.2236 39.483C62.7712 39.2121 62.4127 38.8182 62.148 38.3011C61.8864 37.7841 61.7556 37.1562 61.7556 36.4176C61.7556 35.6913 61.8833 35.0588 62.1388 34.5202C62.3942 33.9786 62.7497 33.56 63.2052 33.2646C63.6607 32.966 64.1869 32.8168 64.784 32.8168C65.2456 32.8168 65.6119 32.8937 65.8827 33.0476C66.1566 33.1984 66.3659 33.3707 66.5106 33.5646C66.6583 33.7554 66.7722 33.9124 66.8522 34.0355H66.963V32.9091H68.0155V40.2031C68.0155 40.8125 67.877 41.308 67.6001 41.6896C67.3261 42.0743 66.9568 42.3559 66.4921 42.5344C66.0305 42.716 65.5165 42.8068 64.9502 42.8068ZM64.9133 38.9105C65.3503 38.9105 65.7196 38.8105 66.0212 38.6104C66.3228 38.4104 66.5521 38.1226 66.7091 37.7472C66.866 37.3717 66.9445 36.9223 66.9445 36.3991C66.9445 35.8883 66.8676 35.4374 66.7137 35.0465C66.5598 34.6557 66.3321 34.3494 66.0305 34.1278C65.7288 33.9062 65.3564 33.7955 64.9133 33.7955C64.4516 33.7955 64.0669 33.9124 63.7591 34.1463C63.4545 34.3802 63.2252 34.6941 63.0713 35.0881C62.9205 35.482 62.8451 35.919 62.8451 36.3991C62.8451 36.8916 62.922 37.3271 63.0759 37.7056C63.2329 38.0811 63.4637 38.3765 63.7684 38.592C64.0761 38.8043 64.4578 38.9105 64.9133 38.9105ZM75.7528 40.1662C75.3034 40.1662 74.8956 40.0816 74.5294 39.9123C74.1631 39.7399 73.8723 39.4922 73.6569 39.169C73.4414 38.8428 73.3337 38.4489 73.3337 37.9872C73.3337 37.581 73.4137 37.2517 73.5738 36.9993C73.7338 36.7438 73.9477 36.5438 74.2155 36.3991C74.4832 36.2545 74.7787 36.1468 75.1018 36.076C75.4281 36.0021 75.7558 35.9437 76.0851 35.9006C76.516 35.8452 76.8653 35.8036 77.1331 35.7759C77.4039 35.7451 77.6009 35.6944 77.724 35.6236C77.8502 35.5528 77.9133 35.4297 77.9133 35.2543V35.2173C77.9133 34.7618 77.7886 34.4079 77.5393 34.1555C77.2931 33.9032 76.9192 33.777 76.4175 33.777C75.8974 33.777 75.4896 33.8909 75.1942 34.1186C74.8987 34.3464 74.691 34.5895 74.5709 34.848L73.5368 34.4787C73.7215 34.0478 73.9677 33.7124 74.2755 33.4723C74.5863 33.2292 74.9249 33.0599 75.2911 32.9645C75.6604 32.866 76.0236 32.8168 76.3806 32.8168C76.6083 32.8168 76.8699 32.8445 77.1654 32.8999C77.4639 32.9522 77.7517 33.0614 78.0287 33.2276C78.3087 33.3938 78.5411 33.6446 78.7258 33.9801C78.9104 34.3156 79.0028 34.7649 79.0028 35.3281V40H77.9133V39.0398H77.8579C77.784 39.1937 77.6609 39.3583 77.4885 39.5337C77.3162 39.7092 77.0869 39.8584 76.8007 39.9815C76.5145 40.1046 76.1652 40.1662 75.7528 40.1662ZM75.9189 39.1875C76.3498 39.1875 76.713 39.1029 77.0084 38.9336C77.307 38.7643 77.5316 38.5458 77.6824 38.2781C77.8363 38.0103 77.9133 37.7287 77.9133 37.4332V36.4361C77.8671 36.4915 77.7655 36.5423 77.6086 36.5884C77.4547 36.6315 77.2762 36.67 77.0731 36.7038C76.873 36.7346 76.6776 36.7623 76.4868 36.7869C76.299 36.8085 76.1467 36.8269 76.0297 36.8423C75.7466 36.8793 75.4819 36.9393 75.2357 37.0224C74.9926 37.1024 74.7956 37.224 74.6448 37.3871C74.4971 37.5471 74.4232 37.7656 74.4232 38.0426C74.4232 38.4212 74.5632 38.7074 74.8433 38.9013C75.1265 39.0921 75.485 39.1875 75.9189 39.1875ZM80.9913 42.6591V32.9091H82.0439V34.0355H82.1731C82.2531 33.9124 82.3639 33.7554 82.5055 33.5646C82.6502 33.3707 82.8564 33.1984 83.1241 33.0476C83.3949 32.8937 83.7612 32.8168 84.2228 32.8168C84.8199 32.8168 85.3462 32.966 85.8017 33.2646C86.2572 33.5631 86.6126 33.9863 86.8681 34.5341C87.1235 35.0819 87.2512 35.7282 87.2512 36.473C87.2512 37.224 87.1235 37.8749 86.8681 38.4258C86.6126 38.9736 86.2587 39.3983 85.8063 39.6999C85.3539 39.9985 84.8322 40.1477 84.2413 40.1477C83.7858 40.1477 83.4211 40.0723 83.1472 39.9215C82.8733 39.7676 82.6625 39.5937 82.5147 39.3999C82.367 39.2029 82.2531 39.0398 82.1731 38.9105H82.0808V42.6591H80.9913ZM82.0623 36.4545C82.0623 36.9901 82.1408 37.4625 82.2978 37.8718C82.4547 38.2781 82.684 38.5966 82.9856 38.8274C83.2872 39.0552 83.6565 39.169 84.0936 39.169C84.5491 39.169 84.9292 39.049 85.2338 38.8089C85.5416 38.5658 85.7724 38.2396 85.9263 37.8303C86.0833 37.4179 86.1618 36.9593 86.1618 36.4545C86.1618 35.956 86.0848 35.5066 85.9309 35.1065C85.7801 34.7034 85.5508 34.3848 85.2431 34.1509C84.9384 33.9139 84.5552 33.7955 84.0936 33.7955C83.6504 33.7955 83.278 33.9078 82.9764 34.1325C82.6748 34.354 82.447 34.6649 82.2931 35.065C82.1393 35.462 82.0623 35.9252 82.0623 36.4545ZM88.9132 42.6591V32.9091H89.9657V34.0355H90.095C90.175 33.9124 90.2858 33.7554 90.4274 33.5646C90.572 33.3707 90.7782 33.1984 91.046 33.0476C91.3168 32.8937 91.6831 32.8168 92.1447 32.8168C92.7418 32.8168 93.2681 32.966 93.7235 33.2646C94.179 33.5631 94.5345 33.9863 94.79 34.5341C95.0454 35.0819 95.1731 35.7282 95.1731 36.473C95.1731 37.224 95.0454 37.8749 94.79 38.4258C94.5345 38.9736 94.1806 39.3983 93.7282 39.6999C93.2757 39.9985 92.7541 40.1477 92.1632 40.1477C91.7077 40.1477 91.343 40.0723 91.0691 39.9215C90.7952 39.7676 90.5843 39.5937 90.4366 39.3999C90.2889 39.2029 90.175 39.0398 90.095 38.9105H90.0027V42.6591H88.9132ZM89.9842 36.4545C89.9842 36.9901 90.0627 37.4625 90.2196 37.8718C90.3766 38.2781 90.6059 38.5966 90.9075 38.8274C91.2091 39.0552 91.5784 39.169 92.0154 39.169C92.4709 39.169 92.851 39.049 93.1557 38.8089C93.4635 38.5658 93.6943 38.2396 93.8482 37.8303C94.0051 37.4179 94.0836 36.9593 94.0836 36.4545C94.0836 35.956 94.0067 35.5066 93.8528 35.1065C93.702 34.7034 93.4727 34.3848 93.165 34.1509C92.8603 33.9139 92.4771 33.7955 92.0154 33.7955C91.5723 33.7955 91.1999 33.9078 90.8983 34.1325C90.5967 34.354 90.3689 34.6649 90.215 35.065C90.0611 35.462 89.9842 35.9252 89.9842 36.4545ZM96.835 40V32.9091H97.8876V33.9801H97.9615C98.0907 33.6293 98.3246 33.3446 98.6632 33.1261C99.0017 32.9076 99.3833 32.7983 99.8081 32.7983C99.8881 32.7983 99.9881 32.7998 100.108 32.8029C100.228 32.806 100.319 32.8106 100.381 32.8168V33.9247C100.344 33.9155 100.259 33.9016 100.127 33.8832C99.9973 33.8616 99.8604 33.8509 99.7157 33.8509C99.371 33.8509 99.0633 33.9232 98.7924 34.0678C98.5247 34.2094 98.3123 34.4064 98.1554 34.6587C98.0015 34.908 97.9245 35.1927 97.9245 35.5128V40H96.835ZM104.337 40.1477C103.697 40.1477 103.135 39.9954 102.652 39.6907C102.172 39.386 101.796 38.9598 101.525 38.4119C101.258 37.8641 101.124 37.224 101.124 36.4915C101.124 35.7528 101.258 35.1081 101.525 34.5572C101.796 34.0063 102.172 33.5785 102.652 33.2738C103.135 32.9691 103.697 32.8168 104.337 32.8168C104.977 32.8168 105.537 32.9691 106.017 33.2738C106.5 33.5785 106.876 34.0063 107.144 34.5572C107.414 35.1081 107.55 35.7528 107.55 36.4915C107.55 37.224 107.414 37.8641 107.144 38.4119C106.876 38.9598 106.5 39.386 106.017 39.6907C105.537 39.9954 104.977 40.1477 104.337 40.1477ZM104.337 39.169C104.823 39.169 105.223 39.0444 105.537 38.7951C105.851 38.5458 106.083 38.218 106.234 37.8118C106.385 37.4055 106.46 36.9654 106.46 36.4915C106.46 36.0175 106.385 35.5759 106.234 35.1665C106.083 34.7572 105.851 34.4264 105.537 34.174C105.223 33.9216 104.823 33.7955 104.337 33.7955C103.851 33.7955 103.45 33.9216 103.137 34.174C102.823 34.4264 102.59 34.7572 102.439 35.1665C102.289 35.5759 102.213 36.0175 102.213 36.4915C102.213 36.9654 102.289 37.4055 102.439 37.8118C102.59 38.218 102.823 38.5458 103.137 38.7951C103.45 39.0444 103.851 39.169 104.337 39.169ZM114.757 32.9091L112.135 40H111.027L108.405 32.9091H109.587L111.544 38.5597H111.618L113.576 32.9091H114.757ZM118.066 40.1662C117.617 40.1662 117.209 40.0816 116.843 39.9123C116.477 39.7399 116.186 39.4922 115.97 39.169C115.755 38.8428 115.647 38.4489 115.647 37.9872C115.647 37.581 115.727 37.2517 115.887 36.9993C116.047 36.7438 116.261 36.5438 116.529 36.3991C116.797 36.2545 117.092 36.1468 117.415 36.076C117.742 36.0021 118.069 35.9437 118.399 35.9006C118.829 35.8452 119.179 35.8036 119.447 35.7759C119.717 35.7451 119.914 35.6944 120.037 35.6236C120.164 35.5528 120.227 35.4297 120.227 35.2543V35.2173C120.227 34.7618 120.102 34.4079 119.853 34.1555C119.607 33.9032 119.233 33.777 118.731 33.777C118.211 33.777 117.803 33.8909 117.508 34.1186C117.212 34.3464 117.004 34.5895 116.884 34.848L115.85 34.4787C116.035 34.0478 116.281 33.7124 116.589 33.4723C116.9 33.2292 117.238 33.0599 117.605 32.9645C117.974 32.866 118.337 32.8168 118.694 32.8168C118.922 32.8168 119.183 32.8445 119.479 32.8999C119.777 32.9522 120.065 33.0614 120.342 33.2276C120.622 33.3938 120.855 33.6446 121.039 33.9801C121.224 34.3156 121.316 34.7649 121.316 35.3281V40H120.227V39.0398H120.171C120.097 39.1937 119.974 39.3583 119.802 39.5337C119.63 39.7092 119.4 39.8584 119.114 39.9815C118.828 40.1046 118.479 40.1662 118.066 40.1662ZM118.232 39.1875C118.663 39.1875 119.026 39.1029 119.322 38.9336C119.62 38.7643 119.845 38.5458 119.996 38.2781C120.15 38.0103 120.227 37.7287 120.227 37.4332V36.4361C120.181 36.4915 120.079 36.5423 119.922 36.5884C119.768 36.6315 119.59 36.67 119.387 36.7038C119.186 36.7346 118.991 36.7623 118.8 36.7869C118.613 36.8085 118.46 36.8269 118.343 36.8423C118.06 36.8793 117.795 36.9393 117.549 37.0224C117.306 37.1024 117.109 37.224 116.958 37.3871C116.811 37.5471 116.737 37.7656 116.737 38.0426C116.737 38.4212 116.877 38.7074 117.157 38.9013C117.44 39.0921 117.798 39.1875 118.232 39.1875ZM124.394 30.5455V40H123.305V30.5455H124.394Z" fill="white"/>
<circle cx="5.98047" cy="64.5" r="5" fill="#5BB991"/>
<path d="M20.5131 69H19.3129L22.7844 59.5455H23.9663L27.4379 69H26.2376L23.4123 61.0412H23.3384L20.5131 69ZM20.9563 65.3068H25.7944V66.3224H20.9563V65.3068ZM28.7628 71.6591V61.9091H29.8153V63.0355H29.9446C30.0246 62.9124 30.1354 62.7554 30.277 62.5646C30.4216 62.3707 30.6278 62.1984 30.8956 62.0476C31.1664 61.8937 31.5327 61.8168 31.9943 61.8168C32.5914 61.8168 33.1177 61.966 33.5732 62.2646C34.0286 62.5631 34.3841 62.9863 34.6396 63.5341C34.895 64.0819 35.0227 64.7282 35.0227 65.473C35.0227 66.224 34.895 66.8749 34.6396 67.4258C34.3841 67.9736 34.0302 68.3983 33.5778 68.6999C33.1254 68.9985 32.6037 69.1477 32.0128 69.1477C31.5573 69.1477 31.1926 69.0723 30.9187 68.9215C30.6448 68.7676 30.4339 68.5937 30.2862 68.3999C30.1385 68.2029 30.0246 68.0398 29.9446 67.9105H29.8523V71.6591H28.7628ZM29.8338 65.4545C29.8338 65.9901 29.9123 66.4625 30.0692 66.8718C30.2262 67.2781 30.4555 67.5966 30.7571 67.8274C31.0587 68.0552 31.428 68.169 31.8651 68.169C32.3205 68.169 32.7006 68.049 33.0053 67.8089C33.3131 67.5658 33.5439 67.2396 33.6978 66.8303C33.8548 66.4179 33.9332 65.9593 33.9332 65.4545C33.9332 64.956 33.8563 64.5066 33.7024 64.1065C33.5516 63.7034 33.3223 63.3848 33.0146 63.1509C32.7099 62.9139 32.3267 62.7955 31.8651 62.7955C31.4219 62.7955 31.0495 62.9078 30.7479 63.1325C30.4463 63.354 30.2185 63.6649 30.0646 64.065C29.9107 64.462 29.8338 64.9252 29.8338 65.4545ZM36.6847 71.6591V61.9091H37.7372V63.0355H37.8665C37.9465 62.9124 38.0573 62.7554 38.1989 62.5646C38.3435 62.3707 38.5497 62.1984 38.8175 62.0476C39.0883 61.8937 39.4545 61.8168 39.9162 61.8168C40.5133 61.8168 41.0395 61.966 41.495 62.2646C41.9505 62.5631 42.306 62.9863 42.5614 63.5341C42.8169 64.0819 42.9446 64.7282 42.9446 65.473C42.9446 66.224 42.8169 66.8749 42.5614 67.4258C42.306 67.9736 41.9521 68.3983 41.4996 68.6999C41.0472 68.9985 40.5256 69.1477 39.9347 69.1477C39.4792 69.1477 39.1145 69.0723 38.8406 68.9215C38.5666 68.7676 38.3558 68.5937 38.2081 68.3999C38.0604 68.2029 37.9465 68.0398 37.8665 67.9105H37.7741V71.6591H36.6847ZM37.7557 65.4545C37.7557 65.9901 37.8342 66.4625 37.9911 66.8718C38.1481 67.2781 38.3774 67.5966 38.679 67.8274C38.9806 68.0552 39.3499 68.169 39.7869 68.169C40.2424 68.169 40.6225 68.049 40.9272 67.8089C41.235 67.5658 41.4658 67.2396 41.6197 66.8303C41.7766 66.4179 41.8551 65.9593 41.8551 65.4545C41.8551 64.956 41.7782 64.5066 41.6243 64.1065C41.4735 63.7034 41.2442 63.3848 40.9364 63.1509C40.6317 62.9139 40.2486 62.7955 39.7869 62.7955C39.3438 62.7955 38.9714 62.9078 38.6697 63.1325C38.3681 63.354 38.1404 63.6649 37.9865 64.065C37.8326 64.462 37.7557 64.9252 37.7557 65.4545ZM44.6065 69V61.9091H45.6591V62.9801H45.733C45.8622 62.6293 46.0961 62.3446 46.4347 62.1261C46.7732 61.9076 47.1548 61.7983 47.5795 61.7983C47.6596 61.7983 47.7596 61.7998 47.8796 61.8029C47.9996 61.806 48.0904 61.8106 48.152 61.8168V62.9247C48.1151 62.9155 48.0304 62.9016 47.8981 62.8832C47.7688 62.8616 47.6319 62.8509 47.4872 62.8509C47.1425 62.8509 46.8348 62.9232 46.5639 63.0678C46.2962 63.2094 46.0838 63.4064 45.9268 63.6587C45.773 63.908 45.696 64.1927 45.696 64.5128V69H44.6065ZM52.1083 69.1477C51.4682 69.1477 50.9065 68.9954 50.4233 68.6907C49.9432 68.386 49.5677 67.9598 49.2969 67.4119C49.0291 66.8641 48.8952 66.224 48.8952 65.4915C48.8952 64.7528 49.0291 64.1081 49.2969 63.5572C49.5677 63.0063 49.9432 62.5785 50.4233 62.2738C50.9065 61.9691 51.4682 61.8168 52.1083 61.8168C52.7485 61.8168 53.3086 61.9691 53.7887 62.2738C54.2719 62.5785 54.6474 63.0063 54.9151 63.5572C55.186 64.1081 55.3214 64.7528 55.3214 65.4915C55.3214 66.224 55.186 66.8641 54.9151 67.4119C54.6474 67.9598 54.2719 68.386 53.7887 68.6907C53.3086 68.9954 52.7485 69.1477 52.1083 69.1477ZM52.1083 68.169C52.5946 68.169 52.9947 68.0444 53.3086 67.7951C53.6225 67.5458 53.8549 67.218 54.0057 66.8118C54.1565 66.4055 54.2319 65.9654 54.2319 65.4915C54.2319 65.0175 54.1565 64.5759 54.0057 64.1665C53.8549 63.7572 53.6225 63.4264 53.3086 63.174C52.9947 62.9216 52.5946 62.7955 52.1083 62.7955C51.622 62.7955 51.2219 62.9216 50.908 63.174C50.5941 63.4264 50.3617 63.7572 50.2109 64.1665C50.0601 64.5759 49.9847 65.0175 49.9847 65.4915C49.9847 65.9654 50.0601 66.4055 50.2109 66.8118C50.3617 67.218 50.5941 67.5458 50.908 67.7951C51.2219 68.0444 51.622 68.169 52.1083 68.169ZM62.5289 61.9091L59.9067 69H58.7987L56.1766 61.9091H57.3584L59.3158 67.5597H59.3896L61.347 61.9091H62.5289ZM66.686 69.1477C66.0028 69.1477 65.4134 68.9969 64.9179 68.6953C64.4255 68.3906 64.0454 67.9659 63.7776 67.4212C63.5129 66.8733 63.3806 66.2363 63.3806 65.5099C63.3806 64.7836 63.5129 64.1435 63.7776 63.5895C64.0454 63.0324 64.4178 62.5985 64.8948 62.2876C65.3749 61.9737 65.935 61.8168 66.5752 61.8168C66.9445 61.8168 67.3092 61.8783 67.6693 62.0014C68.0294 62.1245 68.3572 62.3246 68.6526 62.6016C68.9481 62.8755 69.1835 63.2386 69.3589 63.6911C69.5344 64.1435 69.6221 64.7005 69.6221 65.3622V65.8239H64.1562V64.8821H68.5141C68.5141 64.482 68.4341 64.125 68.2741 63.8111C68.1171 63.4972 67.8924 63.2494 67.6001 63.0678C67.3108 62.8862 66.9691 62.7955 66.5752 62.7955C66.1412 62.7955 65.7658 62.9032 65.4488 63.1186C65.1349 63.331 64.8933 63.608 64.724 63.9496C64.5547 64.2912 64.4701 64.6574 64.4701 65.0483V65.6761C64.4701 66.2116 64.5624 66.6656 64.7471 67.038C64.9348 67.4073 65.1949 67.6889 65.5273 67.8828C65.8596 68.0736 66.2459 68.169 66.686 68.169C66.9722 68.169 67.2307 68.129 67.4616 68.049C67.6955 67.9659 67.897 67.8428 68.0663 67.6797C68.2356 67.5135 68.3664 67.3073 68.4587 67.0611L69.5113 67.3565C69.4005 67.7135 69.2143 68.0275 68.9527 68.2983C68.6911 68.5661 68.3679 68.7753 67.9832 68.9261C67.5985 69.0739 67.1661 69.1477 66.686 69.1477ZM73.9569 69.1477C73.366 69.1477 72.8444 68.9985 72.392 68.6999C71.9395 68.3983 71.5856 67.9736 71.3302 67.4258C71.0747 66.8749 70.947 66.224 70.947 65.473C70.947 64.7282 71.0747 64.0819 71.3302 63.5341C71.5856 62.9863 71.9411 62.5631 72.3966 62.2646C72.8521 61.966 73.3783 61.8168 73.9754 61.8168C74.4371 61.8168 74.8018 61.8937 75.0695 62.0476C75.3403 62.1984 75.5465 62.3707 75.6881 62.5646C75.8328 62.7554 75.9451 62.9124 76.0251 63.0355H76.1175V59.5455H77.2069V69H76.1544V67.9105H76.0251C75.9451 68.0398 75.8312 68.2029 75.6835 68.3999C75.5358 68.5937 75.325 68.7676 75.051 68.9215C74.7771 69.0723 74.4124 69.1477 73.9569 69.1477ZM74.1047 68.169C74.5417 68.169 74.911 68.0552 75.2126 67.8274C75.5142 67.5966 75.7435 67.2781 75.9005 66.8718C76.0574 66.4625 76.1359 65.9901 76.1359 65.4545C76.1359 64.9252 76.059 64.462 75.9051 64.065C75.7512 63.6649 75.5235 63.354 75.2219 63.1325C74.9202 62.9078 74.5479 62.7955 74.1047 62.7955C73.643 62.7955 73.2583 62.9139 72.9506 63.1509C72.6459 63.3848 72.4166 63.7034 72.2627 64.1065C72.1119 64.5066 72.0365 64.956 72.0365 65.4545C72.0365 65.9593 72.1134 66.4179 72.2673 66.8303C72.4243 67.2396 72.6551 67.5658 72.9598 67.8089C73.2675 68.049 73.6492 68.169 74.1047 68.169Z" fill="white"/>
</svg>
