<svg width="361" height="81" viewBox="0 0 361 81" fill="none" xmlns="http://www.w3.org/2000/svg">
<line x1="230.5" y1="18" x2="230.5" y2="63" stroke="#C9CEE9"/>
<line x1="96.5" y1="18" x2="96.5" y2="63" stroke="#C9CEE9"/>
<circle cx="10" cy="18" r="9" fill="url(#paint0_linear_0_340)"/>
<path d="M14.5 1L17.3999 3.01182L20.9894 3.00532L22.0921 6.25404L25 8.25534L23.8843 11.5L25 14.7447L22.0921 16.746L20.9894 19.9947L17.3999 19.9882L14.5 22L11.6001 19.9882L8.01065 19.9947L6.90794 16.746L4 14.7447L5.1157 11.5L4 8.25534L6.90794 6.25404L8.01065 3.00532L11.6001 3.01182L14.5 1Z" fill="#0F1738"/>
<path d="M10.75 11.8065L13.5572 14.6129L19.1716 9" stroke="white" stroke-width="1.08333" stroke-linecap="round" stroke-linejoin="round"/>
<path d="M9.77459 41.8182V52H8.58141L3.03311 44.0057H2.93368V52H1.70073V41.8182H2.89391L8.46209 49.8324H8.56152V41.8182H9.77459ZM15.2844 52.1591C14.5486 52.1591 13.9139 51.9967 13.3802 51.6719C12.8499 51.3438 12.4406 50.8864 12.1523 50.2997C11.8672 49.7098 11.7247 49.0237 11.7247 48.2415C11.7247 47.4593 11.8672 46.7699 12.1523 46.1733C12.4406 45.5734 12.8416 45.1061 13.3554 44.7713C13.8724 44.4332 14.4756 44.2642 15.165 44.2642C15.5628 44.2642 15.9555 44.3305 16.3433 44.4631C16.7311 44.5956 17.0841 44.8111 17.4023 45.1094C17.7204 45.4044 17.974 45.7955 18.1629 46.2827C18.3518 46.7699 18.4463 47.3698 18.4463 48.0824V48.5795H12.5599V47.5653H17.2531C17.2531 47.1345 17.1669 46.75 16.9946 46.4119C16.8256 46.0739 16.5836 45.8071 16.2687 45.6115C15.9572 45.416 15.5893 45.3182 15.165 45.3182C14.6977 45.3182 14.2934 45.4342 13.952 45.6662C13.6139 45.8949 13.3537 46.1932 13.1714 46.5611C12.9891 46.929 12.898 47.3234 12.898 47.7443V48.4205C12.898 48.9972 12.9974 49.486 13.1963 49.8871C13.3985 50.2848 13.6785 50.5881 14.0365 50.7969C14.3944 51.0024 14.8104 51.1051 15.2844 51.1051C15.5926 51.1051 15.871 51.062 16.1196 50.9759C16.3715 50.8864 16.5886 50.7538 16.7709 50.5781C16.9532 50.3991 17.094 50.1771 17.1934 49.9119L18.327 50.2301C18.2077 50.6146 18.0071 50.9527 17.7254 51.2443C17.4437 51.5327 17.0957 51.758 16.6814 51.9205C16.2671 52.0795 15.8014 52.1591 15.2844 52.1591ZM21.9612 52L19.6345 44.3636H20.8675L22.518 50.2102H22.5976L24.2282 44.3636H25.4811L27.0919 50.1903H27.1714L28.822 44.3636H30.055L27.7282 52H26.5748L24.9044 46.1335H24.7851L23.1146 52H21.9612Z" fill="#6A6A6D"/>
<path d="M1.39915 78V76.4091L6.32102 71.3097C6.84659 70.7557 7.27983 70.2704 7.62074 69.8537C7.96638 69.4323 8.22443 69.0322 8.39489 68.6534C8.56534 68.2746 8.65057 67.8722 8.65057 67.446C8.65057 66.9631 8.53693 66.5464 8.30966 66.196C8.08239 65.8409 7.77225 65.5687 7.37926 65.3793C6.98627 65.1851 6.54356 65.0881 6.05114 65.0881C5.5303 65.0881 5.07576 65.1946 4.6875 65.4077C4.29924 65.6207 4.00095 65.9214 3.79261 66.3097C3.58428 66.6979 3.48011 67.1525 3.48011 67.6733H1.38494C1.38494 66.7879 1.58854 66.0137 1.99574 65.3509C2.40294 64.688 2.96165 64.1742 3.67188 63.8097C4.3821 63.4403 5.18939 63.2557 6.09375 63.2557C7.00758 63.2557 7.8125 63.438 8.50852 63.8026C9.20928 64.1624 9.75616 64.6548 10.1491 65.2798C10.5421 65.9001 10.7386 66.6009 10.7386 67.3821C10.7386 67.9219 10.6368 68.4498 10.4332 68.9659C10.2344 69.482 9.88636 70.0573 9.3892 70.6918C8.89205 71.3215 8.20076 72.0862 7.31534 72.9858L4.42472 76.0114V76.1179H10.973V78H1.39915ZM18.7287 78.1989C17.7533 78.1989 16.8821 78.0308 16.1151 77.6946C15.3527 77.3584 14.7491 76.892 14.304 76.2955C13.8636 75.6941 13.6269 74.9981 13.5938 74.2074H15.8239C15.8523 74.6383 15.9967 75.0123 16.2571 75.3295C16.5223 75.642 16.8679 75.8835 17.294 76.054C17.7202 76.2244 18.1937 76.3097 18.7145 76.3097C19.2874 76.3097 19.794 76.2102 20.2344 76.0114C20.6795 75.8125 21.0275 75.5355 21.2784 75.1804C21.5294 74.8205 21.6548 74.4062 21.6548 73.9375C21.6548 73.4498 21.5294 73.0213 21.2784 72.652C21.0322 72.2779 20.67 71.9844 20.1918 71.7713C19.7183 71.5582 19.1454 71.4517 18.473 71.4517H17.2443V69.6619H18.473C19.0128 69.6619 19.4863 69.5649 19.8935 69.3707C20.3054 69.1766 20.6274 68.9067 20.8594 68.5611C21.0914 68.2107 21.2074 67.8011 21.2074 67.3324C21.2074 66.8826 21.1056 66.492 20.902 66.1605C20.7031 65.8243 20.419 65.5616 20.0497 65.3722C19.6851 65.1828 19.2543 65.0881 18.7571 65.0881C18.2836 65.0881 17.8409 65.1757 17.429 65.3509C17.0218 65.5213 16.6903 65.7675 16.4347 66.0895C16.179 66.4067 16.0417 66.7879 16.0227 67.233H13.8991C13.9228 66.447 14.1548 65.7557 14.5952 65.1591C15.0402 64.5625 15.6274 64.0961 16.3565 63.7599C17.0857 63.4238 17.8954 63.2557 18.7855 63.2557C19.7183 63.2557 20.5232 63.438 21.2003 63.8026C21.8821 64.1624 22.4077 64.643 22.777 65.2443C23.151 65.8456 23.3357 66.5038 23.331 67.2188C23.3357 68.0331 23.1084 68.7244 22.6491 69.2926C22.1946 69.8608 21.5885 70.242 20.831 70.4361V70.5497C21.7969 70.6965 22.545 71.08 23.0753 71.7003C23.6103 72.3205 23.8755 73.09 23.8707 74.0085C23.8755 74.8087 23.6529 75.526 23.2031 76.1605C22.758 76.795 22.1496 77.2945 21.3778 77.6591C20.6061 78.0189 19.723 78.1989 18.7287 78.1989Z" fill="#1E1F21"/>
<circle cx="146" cy="18" r="9" fill="url(#paint1_linear_0_340)"/>
<path d="M151.001 19.7135C149.794 19.7135 148.66 19.4844 147.599 19.026C146.537 18.5677 145.616 17.949 144.837 17.1698C144.058 16.3906 143.439 15.47 142.98 14.4079C142.522 13.3464 142.293 12.2122 142.293 11.0052C142.293 9.79826 142.522 8.66374 142.98 7.60162C143.439 6.54012 144.058 5.61979 144.837 4.84063C145.616 4.06146 146.537 3.44271 147.599 2.98438C148.66 2.52604 149.794 2.29688 151.001 2.29688C152.208 2.29688 153.343 2.52604 154.405 2.98438C155.466 3.44271 156.387 4.06146 157.166 4.84063C157.945 5.61979 158.564 6.54012 159.022 7.60162C159.48 8.66374 159.71 9.79826 159.71 11.0052C159.71 12.2122 159.48 13.3464 159.022 14.4079C158.564 15.47 157.945 16.3906 157.166 17.1698C156.387 17.949 155.466 18.5677 154.405 19.026C153.343 19.4844 152.208 19.7135 151.001 19.7135Z" fill="white"/>
<path d="M144.974 12.8816C145.361 12.8816 145.688 12.7478 145.955 12.4804C146.222 12.2136 146.355 11.8868 146.355 11.5C146.355 11.1132 146.222 10.7864 145.955 10.5196C145.688 10.2522 145.361 10.1184 144.974 10.1184C144.587 10.1184 144.26 10.2522 143.993 10.5196C143.726 10.7864 143.592 11.1132 143.592 11.5C143.592 11.8868 143.726 12.2136 143.993 12.4804C144.26 12.7478 144.587 12.8816 144.974 12.8816ZM150.5 12.8816C150.887 12.8816 151.214 12.7478 151.48 12.4804C151.748 12.2136 151.882 11.8868 151.882 11.5C151.882 11.1132 151.748 10.7864 151.48 10.5196C151.214 10.2522 150.887 10.1184 150.5 10.1184C150.113 10.1184 149.786 10.2522 149.52 10.5196C149.252 10.7864 149.118 11.1132 149.118 11.5C149.118 11.8868 149.252 12.2136 149.52 12.4804C149.786 12.7478 150.113 12.8816 150.5 12.8816ZM156.026 12.8816C156.413 12.8816 156.74 12.7478 157.008 12.4804C157.275 12.2136 157.408 11.8868 157.408 11.5C157.408 11.1132 157.275 10.7864 157.008 10.5196C156.74 10.2522 156.413 10.1184 156.026 10.1184C155.639 10.1184 155.313 10.2522 155.046 10.5196C154.778 10.7864 154.645 11.1132 154.645 11.5C154.645 11.8868 154.778 12.2136 155.046 12.4804C155.313 12.7478 155.639 12.8816 156.026 12.8816ZM150.5 22C149.045 22 147.677 21.7237 146.397 21.1711C145.117 20.6184 144.007 19.8724 143.067 18.9329C142.128 17.9934 141.382 16.8834 140.829 15.6027C140.276 14.3228 140 12.9553 140 11.5C140 10.0447 140.276 8.67679 140.829 7.39616C141.382 6.11626 142.128 5.00658 143.067 4.06711C144.007 3.12763 145.117 2.38158 146.397 1.82895C147.677 1.27632 149.045 1 150.5 1C151.955 1 153.323 1.27632 154.604 1.82895C155.884 2.38158 156.993 3.12763 157.933 4.06711C158.872 5.00658 159.618 6.11626 160.171 7.39616C160.724 8.67679 161 10.0447 161 11.5C161 12.9553 160.724 14.3228 160.171 15.6027C159.618 16.8834 158.872 17.9934 157.933 18.9329C156.993 19.8724 155.884 20.6184 154.604 21.1711C153.323 21.7237 151.955 22 150.5 22Z" fill="#1A213F"/>
<path d="M137.234 52V41.8182H140.674C141.47 41.8182 142.123 41.9541 142.633 42.2259C143.143 42.4943 143.521 42.8639 143.767 43.3345C144.012 43.8052 144.134 44.3404 144.134 44.9403C144.134 45.5402 144.012 46.0722 143.767 46.5362C143.521 47.0002 143.145 47.3648 142.638 47.63C142.131 47.8918 141.483 48.0227 140.694 48.0227H137.91V46.9091H140.654C141.198 46.9091 141.635 46.8295 141.967 46.6705C142.302 46.5114 142.544 46.286 142.693 45.9943C142.845 45.6993 142.921 45.348 142.921 44.9403C142.921 44.5327 142.845 44.1764 142.693 43.8714C142.54 43.5665 142.297 43.3312 141.962 43.1655C141.627 42.9964 141.185 42.9119 140.634 42.9119H138.467V52H137.234ZM142.027 47.4261L144.532 52H143.1L140.634 47.4261H142.027ZM149.15 52.1591C148.414 52.1591 147.779 51.9967 147.245 51.6719C146.715 51.3438 146.306 50.8864 146.017 50.2997C145.732 49.7098 145.59 49.0237 145.59 48.2415C145.59 47.4593 145.732 46.7699 146.017 46.1733C146.306 45.5734 146.707 45.1061 147.221 44.7713C147.738 44.4332 148.341 44.2642 149.03 44.2642C149.428 44.2642 149.821 44.3305 150.209 44.4631C150.596 44.5956 150.949 44.8111 151.267 45.1094C151.586 45.4044 151.839 45.7955 152.028 46.2827C152.217 46.7699 152.312 47.3698 152.312 48.0824V48.5795H146.425V47.5653H151.118C151.118 47.1345 151.032 46.75 150.86 46.4119C150.691 46.0739 150.449 45.8071 150.134 45.6115C149.822 45.416 149.455 45.3182 149.03 45.3182C148.563 45.3182 148.159 45.4342 147.817 45.6662C147.479 45.8949 147.219 46.1932 147.037 46.5611C146.854 46.929 146.763 47.3234 146.763 47.7443V48.4205C146.763 48.9972 146.863 49.486 147.062 49.8871C147.264 50.2848 147.544 50.5881 147.902 50.7969C148.26 51.0024 148.676 51.1051 149.15 51.1051C149.458 51.1051 149.736 51.062 149.985 50.9759C150.237 50.8864 150.454 50.7538 150.636 50.5781C150.818 50.3991 150.959 50.1771 151.059 49.9119L152.192 50.2301C152.073 50.6146 151.872 50.9527 151.591 51.2443C151.309 51.5327 150.961 51.758 150.547 51.9205C150.132 52.0795 149.667 52.1591 149.15 52.1591ZM159.307 54.8636V50.8267H159.207C159.121 50.9659 158.998 51.1416 158.839 51.3537C158.68 51.5625 158.453 51.7498 158.158 51.9155C157.863 52.0779 157.47 52.1591 156.98 52.1591C156.343 52.1591 155.782 51.9983 155.294 51.6768C154.807 51.352 154.426 50.8946 154.151 50.3047C153.876 49.7114 153.738 49.0104 153.738 48.2017C153.738 47.3996 153.876 46.7036 154.151 46.1136C154.426 45.5237 154.809 45.0679 155.299 44.7464C155.79 44.425 156.357 44.2642 157 44.2642C157.497 44.2642 157.89 44.3471 158.178 44.5128C158.47 44.6752 158.692 44.8608 158.844 45.0696C159 45.2751 159.121 45.4441 159.207 45.5767H159.346V44.3636H160.48V54.8636H159.307ZM157.139 51.1051C157.61 51.1051 158.007 50.9825 158.332 50.7372C158.657 50.4886 158.904 50.1456 159.073 49.7081C159.242 49.2673 159.326 48.7585 159.326 48.1818C159.326 47.6117 159.244 47.1129 159.078 46.6854C158.912 46.2545 158.667 45.9197 158.342 45.6811C158.017 45.4392 157.616 45.3182 157.139 45.3182C156.642 45.3182 156.227 45.4458 155.896 45.701C155.568 45.9529 155.321 46.2959 155.155 46.7301C154.993 47.161 154.912 47.6449 154.912 48.1818C154.912 48.7254 154.995 49.2192 155.16 49.6634C155.329 50.1042 155.578 50.4555 155.906 50.7173C156.237 50.9759 156.648 51.1051 157.139 51.1051ZM167.44 48.8778V44.3636H168.613V52H167.44V50.7074H167.361C167.182 51.0952 166.903 51.425 166.525 51.6967C166.147 51.9652 165.67 52.0994 165.093 52.0994C164.616 52.0994 164.192 51.995 163.821 51.7862C163.45 51.5741 163.158 51.2559 162.946 50.8317C162.734 50.4041 162.628 49.8655 162.628 49.2159V44.3636H163.801V49.1364C163.801 49.6932 163.957 50.1373 164.268 50.4688C164.583 50.8002 164.984 50.9659 165.471 50.9659C165.763 50.9659 166.06 50.8913 166.361 50.7422C166.666 50.593 166.921 50.3643 167.127 50.0561C167.336 49.7479 167.44 49.3551 167.44 48.8778ZM173.964 52.1591C173.228 52.1591 172.594 51.9967 172.06 51.6719C171.53 51.3438 171.12 50.8864 170.832 50.2997C170.547 49.7098 170.404 49.0237 170.404 48.2415C170.404 47.4593 170.547 46.7699 170.832 46.1733C171.12 45.5734 171.521 45.1061 172.035 44.7713C172.552 44.4332 173.155 44.2642 173.845 44.2642C174.242 44.2642 174.635 44.3305 175.023 44.4631C175.411 44.5956 175.764 44.8111 176.082 45.1094C176.4 45.4044 176.654 45.7955 176.843 46.2827C177.032 46.7699 177.126 47.3698 177.126 48.0824V48.5795H171.24V47.5653H175.933C175.933 47.1345 175.847 46.75 175.674 46.4119C175.505 46.0739 175.263 45.8071 174.948 45.6115C174.637 45.416 174.269 45.3182 173.845 45.3182C173.377 45.3182 172.973 45.4342 172.632 45.6662C172.294 45.8949 172.033 46.1932 171.851 46.5611C171.669 46.929 171.578 47.3234 171.578 47.7443V48.4205C171.578 48.9972 171.677 49.486 171.876 49.8871C172.078 50.2848 172.358 50.5881 172.716 50.7969C173.074 51.0024 173.49 51.1051 173.964 51.1051C174.272 51.1051 174.551 51.062 174.799 50.9759C175.051 50.8864 175.268 50.7538 175.451 50.5781C175.633 50.3991 175.774 50.1771 175.873 49.9119L177.007 50.2301C176.887 50.6146 176.687 50.9527 176.405 51.2443C176.123 51.5327 175.775 51.758 175.361 51.9205C174.947 52.0795 174.481 52.1591 173.964 52.1591ZM184.32 46.0739L183.266 46.3722C183.2 46.1965 183.102 46.0258 182.973 45.8601C182.847 45.6911 182.674 45.5518 182.456 45.4425C182.237 45.3331 181.957 45.2784 181.615 45.2784C181.148 45.2784 180.759 45.3861 180.447 45.6016C180.139 45.8137 179.985 46.0838 179.985 46.4119C179.985 46.7036 180.091 46.9339 180.303 47.103C180.515 47.272 180.846 47.4129 181.297 47.5256L182.431 47.804C183.113 47.9697 183.622 48.2232 183.957 48.5646C184.292 48.9027 184.459 49.3385 184.459 49.8722C184.459 50.3097 184.333 50.7008 184.081 51.0455C183.833 51.3902 183.485 51.6619 183.037 51.8608C182.59 52.0597 182.069 52.1591 181.476 52.1591C180.697 52.1591 180.053 51.9901 179.542 51.652C179.032 51.3139 178.709 50.8201 178.573 50.1705L179.686 49.892C179.792 50.303 179.993 50.6113 180.288 50.8168C180.586 51.0223 180.976 51.125 181.456 51.125C182.003 51.125 182.437 51.009 182.759 50.777C183.084 50.5417 183.246 50.2599 183.246 49.9318C183.246 49.6667 183.153 49.4446 182.968 49.2656C182.782 49.0833 182.497 48.9474 182.112 48.858L180.84 48.5597C180.14 48.3939 179.627 48.1371 179.299 47.7891C178.974 47.4377 178.811 46.9986 178.811 46.4716C178.811 46.0407 178.932 45.6596 179.174 45.3281C179.42 44.9967 179.753 44.7365 180.174 44.5476C180.598 44.3587 181.078 44.2642 181.615 44.2642C182.371 44.2642 182.964 44.4299 183.395 44.7614C183.829 45.0928 184.138 45.5303 184.32 46.0739ZM189.546 44.3636V45.358H185.589V44.3636H189.546ZM186.742 42.5341H187.916V49.8125C187.916 50.1439 187.964 50.3925 188.06 50.5582C188.159 50.7206 188.285 50.83 188.438 50.8864C188.593 50.9394 188.757 50.9659 188.93 50.9659C189.059 50.9659 189.165 50.9593 189.248 50.946C189.331 50.9295 189.397 50.9162 189.447 50.9062L189.685 51.9602C189.606 51.9901 189.495 52.0199 189.352 52.0497C189.21 52.0829 189.029 52.0994 188.81 52.0994C188.479 52.0994 188.154 52.0282 187.836 51.8857C187.521 51.7431 187.259 51.526 187.051 51.2344C186.845 50.9427 186.742 50.5748 186.742 50.1307V42.5341ZM194.431 52.1591C193.695 52.1591 193.06 51.9967 192.527 51.6719C191.996 51.3438 191.587 50.8864 191.299 50.2997C191.014 49.7098 190.871 49.0237 190.871 48.2415C190.871 47.4593 191.014 46.7699 191.299 46.1733C191.587 45.5734 191.988 45.1061 192.502 44.7713C193.019 44.4332 193.622 44.2642 194.312 44.2642C194.709 44.2642 195.102 44.3305 195.49 44.4631C195.878 44.5956 196.231 44.8111 196.549 45.1094C196.867 45.4044 197.12 45.7955 197.309 46.2827C197.498 46.7699 197.593 47.3698 197.593 48.0824V48.5795H191.706V47.5653H196.4C196.4 47.1345 196.313 46.75 196.141 46.4119C195.972 46.0739 195.73 45.8071 195.415 45.6115C195.104 45.416 194.736 45.3182 194.312 45.3182C193.844 45.3182 193.44 45.4342 193.098 45.6662C192.76 45.8949 192.5 46.1932 192.318 46.5611C192.136 46.929 192.044 47.3234 192.044 47.7443V48.4205C192.044 48.9972 192.144 49.486 192.343 49.8871C192.545 50.2848 192.825 50.5881 193.183 50.7969C193.541 51.0024 193.957 51.1051 194.431 51.1051C194.739 51.1051 195.017 51.062 195.266 50.9759C195.518 50.8864 195.735 50.7538 195.917 50.5781C196.1 50.3991 196.241 50.1771 196.34 49.9119L197.473 50.2301C197.354 50.6146 197.154 50.9527 196.872 51.2443C196.59 51.5327 196.242 51.758 195.828 51.9205C195.414 52.0795 194.948 52.1591 194.431 52.1591ZM202.261 52.1591C201.625 52.1591 201.063 51.9983 200.576 51.6768C200.089 51.352 199.707 50.8946 199.432 50.3047C199.157 49.7114 199.02 49.0104 199.02 48.2017C199.02 47.3996 199.157 46.7036 199.432 46.1136C199.707 45.5237 200.09 45.0679 200.581 44.7464C201.071 44.425 201.638 44.2642 202.281 44.2642C202.778 44.2642 203.171 44.3471 203.459 44.5128C203.751 44.6752 203.973 44.8608 204.125 45.0696C204.281 45.2751 204.402 45.4441 204.488 45.5767H204.588V41.8182H205.761V52H204.628V50.8267H204.488C204.402 50.9659 204.28 51.1416 204.12 51.3537C203.961 51.5625 203.734 51.7498 203.439 51.9155C203.144 52.0779 202.752 52.1591 202.261 52.1591ZM202.42 51.1051C202.891 51.1051 203.289 50.9825 203.613 50.7372C203.938 50.4886 204.185 50.1456 204.354 49.7081C204.523 49.2673 204.608 48.7585 204.608 48.1818C204.608 47.6117 204.525 47.1129 204.359 46.6854C204.193 46.2545 203.948 45.9197 203.623 45.6811C203.299 45.4392 202.897 45.3182 202.42 45.3182C201.923 45.3182 201.509 45.4458 201.177 45.701C200.849 45.9529 200.602 46.2959 200.437 46.7301C200.274 47.161 200.193 47.6449 200.193 48.1818C200.193 48.7254 200.276 49.2192 200.441 49.6634C200.611 50.1042 200.859 50.4555 201.187 50.7173C201.519 50.9759 201.93 51.1051 202.42 51.1051Z" fill="#6A6A6D"/>
<path d="M137.399 78V76.4091L142.321 71.3097C142.847 70.7557 143.28 70.2704 143.621 69.8537C143.966 69.4323 144.224 69.0322 144.395 68.6534C144.565 68.2746 144.651 67.8722 144.651 67.446C144.651 66.9631 144.537 66.5464 144.31 66.196C144.082 65.8409 143.772 65.5687 143.379 65.3793C142.986 65.1851 142.544 65.0881 142.051 65.0881C141.53 65.0881 141.076 65.1946 140.688 65.4077C140.299 65.6207 140.001 65.9214 139.793 66.3097C139.584 66.6979 139.48 67.1525 139.48 67.6733H137.385C137.385 66.7879 137.589 66.0137 137.996 65.3509C138.403 64.688 138.962 64.1742 139.672 63.8097C140.382 63.4403 141.189 63.2557 142.094 63.2557C143.008 63.2557 143.813 63.438 144.509 63.8026C145.209 64.1624 145.756 64.6548 146.149 65.2798C146.542 65.9001 146.739 66.6009 146.739 67.3821C146.739 67.9219 146.637 68.4498 146.433 68.9659C146.234 69.482 145.886 70.0573 145.389 70.6918C144.892 71.3215 144.201 72.0862 143.315 72.9858L140.425 76.0114V76.1179H146.973V78H137.399ZM154.729 78.1989C153.753 78.1989 152.882 78.0308 152.115 77.6946C151.353 77.3584 150.749 76.892 150.304 76.2955C149.864 75.6941 149.627 74.9981 149.594 74.2074H151.824C151.852 74.6383 151.997 75.0123 152.257 75.3295C152.522 75.642 152.868 75.8835 153.294 76.054C153.72 76.2244 154.194 76.3097 154.714 76.3097C155.287 76.3097 155.794 76.2102 156.234 76.0114C156.679 75.8125 157.027 75.5355 157.278 75.1804C157.529 74.8205 157.655 74.4062 157.655 73.9375C157.655 73.4498 157.529 73.0213 157.278 72.652C157.032 72.2779 156.67 71.9844 156.192 71.7713C155.718 71.5582 155.145 71.4517 154.473 71.4517H153.244V69.6619H154.473C155.013 69.6619 155.486 69.5649 155.893 69.3707C156.305 69.1766 156.627 68.9067 156.859 68.5611C157.091 68.2107 157.207 67.8011 157.207 67.3324C157.207 66.8826 157.106 66.492 156.902 66.1605C156.703 65.8243 156.419 65.5616 156.05 65.3722C155.685 65.1828 155.254 65.0881 154.757 65.0881C154.284 65.0881 153.841 65.1757 153.429 65.3509C153.022 65.5213 152.69 65.7675 152.435 66.0895C152.179 66.4067 152.042 66.7879 152.023 67.233H149.899C149.923 66.447 150.155 65.7557 150.595 65.1591C151.04 64.5625 151.627 64.0961 152.357 63.7599C153.086 63.4238 153.895 63.2557 154.786 63.2557C155.718 63.2557 156.523 63.438 157.2 63.8026C157.882 64.1624 158.408 64.643 158.777 65.2443C159.151 65.8456 159.336 66.5038 159.331 67.2188C159.336 68.0331 159.108 68.7244 158.649 69.2926C158.195 69.8608 157.589 70.242 156.831 70.4361V70.5497C157.797 70.6965 158.545 71.08 159.075 71.7003C159.61 72.3205 159.875 73.09 159.871 74.0085C159.875 74.8087 159.653 75.526 159.203 76.1605C158.758 76.795 158.15 77.2945 157.378 77.6591C156.606 78.0189 155.723 78.1989 154.729 78.1989Z" fill="#1E1F21"/>
<circle cx="280" cy="18" r="9" fill="url(#paint2_linear_0_340)"/>
<path d="M284.5 22C283.045 22 281.677 21.7237 280.397 21.1711C279.117 20.6184 278.007 19.8724 277.067 18.9329C276.128 17.9934 275.382 16.8834 274.829 15.6027C274.276 14.3228 274 12.9553 274 11.5C274 10.0447 274.276 8.67679 274.829 7.39616C275.382 6.11626 276.128 5.00658 277.067 4.06711C278.007 3.12763 279.117 2.38158 280.397 1.82895C281.677 1.27632 283.045 1 284.5 1C285.955 1 287.323 1.27632 288.604 1.82895C289.884 2.38158 290.993 3.12763 291.933 4.06711C292.872 5.00658 293.618 6.11626 294.171 7.39616C294.724 8.67679 295 10.0447 295 11.5C295 12.9553 294.724 14.3228 294.171 15.6027C293.618 16.8834 292.872 17.9934 291.933 18.9329C290.993 19.8724 289.884 20.6184 288.604 21.1711C287.323 21.7237 285.955 22 284.5 22Z" fill="#1A213F"/>
<mask id="mask0_0_340" style="mask-type:alpha" maskUnits="userSpaceOnUse" x="278" y="5" width="13" height="13">
<rect x="278" y="5" width="13" height="13" fill="#D9D9D9"/>
</mask>
<g mask="url(#mask0_0_340)">
<path d="M280.166 15.2943V14.2109H281.249V10.4193C281.249 9.66997 281.475 9.00408 281.926 8.4216C282.378 7.83949 282.965 7.45816 283.687 7.2776V6.89844C283.687 6.67274 283.766 6.48099 283.924 6.32319C284.082 6.16502 284.274 6.08594 284.499 6.08594C284.725 6.08594 284.917 6.16502 285.075 6.32319C285.233 6.48099 285.312 6.67274 285.312 6.89844V7.2776C286.034 7.45816 286.621 7.83949 287.072 8.4216C287.524 9.00408 287.749 9.66997 287.749 10.4193V14.2109H288.833V15.2943H280.166ZM284.499 16.9193C284.201 16.9193 283.946 16.8133 283.735 16.6013C283.522 16.389 283.416 16.1339 283.416 15.8359H285.583C285.583 16.1339 285.477 16.389 285.265 16.6013C285.052 16.8133 284.797 16.9193 284.499 16.9193Z" fill="white"/>
</g>
<path d="M272.102 52H270.809L274.548 41.8182H275.82L279.559 52H278.267L275.224 43.429H275.144L272.102 52ZM272.579 48.0227H277.789V49.1165H272.579V48.0227ZM284.088 52.1591C283.372 52.1591 282.756 51.9901 282.239 51.652C281.722 51.3139 281.324 50.8482 281.046 50.255C280.767 49.6617 280.628 48.9839 280.628 48.2216C280.628 47.446 280.771 46.7616 281.056 46.1683C281.344 45.5717 281.745 45.1061 282.259 44.7713C282.776 44.4332 283.379 44.2642 284.068 44.2642C284.605 44.2642 285.089 44.3636 285.52 44.5625C285.951 44.7614 286.304 45.0398 286.579 45.3977C286.854 45.7557 287.025 46.1733 287.091 46.6506H285.918C285.828 46.3026 285.629 45.9943 285.321 45.7259C285.016 45.4541 284.605 45.3182 284.088 45.3182C283.631 45.3182 283.23 45.4375 282.885 45.6761C282.544 45.9115 282.277 46.2446 282.085 46.6754C281.896 47.103 281.801 47.6051 281.801 48.1818C281.801 48.7718 281.894 49.2855 282.08 49.723C282.269 50.1605 282.534 50.5002 282.875 50.7422C283.22 50.9841 283.624 51.1051 284.088 51.1051C284.393 51.1051 284.67 51.0521 284.919 50.946C285.167 50.84 285.378 50.6875 285.55 50.4886C285.722 50.2898 285.845 50.0511 285.918 49.7727H287.091C287.025 50.2235 286.861 50.6295 286.599 50.9908C286.34 51.3487 285.997 51.6338 285.57 51.8459C285.146 52.0547 284.652 52.1591 284.088 52.1591ZM292.127 44.3636V45.358H288.17V44.3636H292.127ZM289.323 42.5341H290.497V49.8125C290.497 50.1439 290.545 50.3925 290.641 50.5582C290.74 50.7206 290.866 50.83 291.019 50.8864C291.174 50.9394 291.338 50.9659 291.511 50.9659C291.64 50.9659 291.746 50.9593 291.829 50.946C291.912 50.9295 291.978 50.9162 292.028 50.9062L292.267 51.9602C292.187 51.9901 292.076 52.0199 291.933 52.0497C291.791 52.0829 291.61 52.0994 291.392 52.0994C291.06 52.0994 290.735 52.0282 290.417 51.8857C290.102 51.7431 289.84 51.526 289.632 51.2344C289.426 50.9427 289.323 50.5748 289.323 50.1307V42.5341ZM293.892 52V44.3636H295.066V52H293.892ZM294.489 43.0909C294.26 43.0909 294.063 43.013 293.897 42.8572C293.735 42.7015 293.654 42.5142 293.654 42.2955C293.654 42.0767 293.735 41.8894 293.897 41.7337C294.063 41.5779 294.26 41.5 294.489 41.5C294.718 41.5 294.913 41.5779 295.075 41.7337C295.241 41.8894 295.324 42.0767 295.324 42.2955C295.324 42.5142 295.241 42.7015 295.075 42.8572C294.913 43.013 294.718 43.0909 294.489 43.0909ZM300.317 52.1591C299.627 52.1591 299.022 51.995 298.502 51.6669C297.985 51.3388 297.581 50.8797 297.289 50.2898C297.001 49.6998 296.857 49.0104 296.857 48.2216C296.857 47.4261 297.001 46.7318 297.289 46.1385C297.581 45.5452 297.985 45.0845 298.502 44.7564C299.022 44.4283 299.627 44.2642 300.317 44.2642C301.006 44.2642 301.609 44.4283 302.126 44.7564C302.647 45.0845 303.051 45.5452 303.339 46.1385C303.631 46.7318 303.777 47.4261 303.777 48.2216C303.777 49.0104 303.631 49.6998 303.339 50.2898C303.051 50.8797 302.647 51.3388 302.126 51.6669C301.609 51.995 301.006 52.1591 300.317 52.1591ZM300.317 51.1051C300.84 51.1051 301.271 50.9709 301.609 50.7024C301.947 50.4339 302.198 50.081 302.36 49.6435C302.522 49.206 302.604 48.732 302.604 48.2216C302.604 47.7112 302.522 47.2356 302.36 46.7947C302.198 46.3539 301.947 45.9976 301.609 45.7259C301.271 45.4541 300.84 45.3182 300.317 45.3182C299.793 45.3182 299.362 45.4541 299.024 45.7259C298.686 45.9976 298.436 46.3539 298.273 46.7947C298.111 47.2356 298.03 47.7112 298.03 48.2216C298.03 48.732 298.111 49.206 298.273 49.6435C298.436 50.081 298.686 50.4339 299.024 50.7024C299.362 50.9709 299.793 51.1051 300.317 51.1051ZM306.741 47.4062V52H305.568V44.3636H306.702V45.5568H306.801C306.98 45.169 307.252 44.8575 307.616 44.6222C307.981 44.3835 308.452 44.2642 309.028 44.2642C309.545 44.2642 309.998 44.3703 310.385 44.5824C310.773 44.7912 311.075 45.1094 311.29 45.5369C311.506 45.9612 311.613 46.4981 311.613 47.1477V52H310.44V47.2273C310.44 46.6274 310.284 46.16 309.973 45.8253C309.661 45.4872 309.234 45.3182 308.69 45.3182C308.316 45.3182 307.981 45.3994 307.686 45.5618C307.394 45.7242 307.164 45.9612 306.995 46.2727C306.826 46.5843 306.741 46.9621 306.741 47.4062ZM319.167 46.0739L318.113 46.3722C318.046 46.1965 317.949 46.0258 317.819 45.8601C317.693 45.6911 317.521 45.5518 317.302 45.4425C317.083 45.3331 316.803 45.2784 316.462 45.2784C315.995 45.2784 315.605 45.3861 315.294 45.6016C314.985 45.8137 314.831 46.0838 314.831 46.4119C314.831 46.7036 314.937 46.9339 315.15 47.103C315.362 47.272 315.693 47.4129 316.144 47.5256L317.277 47.804C317.96 47.9697 318.469 48.2232 318.804 48.5646C319.138 48.9027 319.306 49.3385 319.306 49.8722C319.306 50.3097 319.18 50.7008 318.928 51.0455C318.679 51.3902 318.331 51.6619 317.884 51.8608C317.436 52.0597 316.916 52.1591 316.323 52.1591C315.544 52.1591 314.899 51.9901 314.389 51.652C313.878 51.3139 313.555 50.8201 313.419 50.1705L314.533 49.892C314.639 50.303 314.84 50.6113 315.135 50.8168C315.433 51.0223 315.822 51.125 316.303 51.125C316.85 51.125 317.284 51.009 317.605 50.777C317.93 50.5417 318.093 50.2599 318.093 49.9318C318.093 49.6667 318 49.4446 317.814 49.2656C317.629 49.0833 317.344 48.9474 316.959 48.858L315.686 48.5597C314.987 48.3939 314.473 48.1371 314.145 47.7891C313.82 47.4377 313.658 46.9986 313.658 46.4716C313.658 46.0407 313.779 45.6596 314.021 45.3281C314.266 44.9967 314.599 44.7365 315.02 44.5476C315.444 44.3587 315.925 44.2642 316.462 44.2642C317.218 44.2642 317.811 44.4299 318.242 44.7614C318.676 45.0928 318.984 45.5303 319.167 46.0739ZM328.33 44.3636V45.358H324.373V44.3636H328.33ZM325.526 42.5341H326.7V49.8125C326.7 50.1439 326.748 50.3925 326.844 50.5582C326.943 50.7206 327.069 50.83 327.222 50.8864C327.378 50.9394 327.542 50.9659 327.714 50.9659C327.843 50.9659 327.949 50.9593 328.032 50.946C328.115 50.9295 328.181 50.9162 328.231 50.9062L328.47 51.9602C328.39 51.9901 328.279 52.0199 328.137 52.0497C327.994 52.0829 327.813 52.0994 327.595 52.0994C327.263 52.0994 326.938 52.0282 326.62 51.8857C326.305 51.7431 326.044 51.526 325.835 51.2344C325.629 50.9427 325.526 50.5748 325.526 50.1307V42.5341ZM332.343 52.179C331.859 52.179 331.419 52.0878 331.025 51.9055C330.631 51.7199 330.317 51.4531 330.085 51.1051C329.853 50.7538 329.737 50.3295 329.737 49.8324C329.737 49.3949 329.824 49.0402 329.996 48.7685C330.168 48.4934 330.399 48.2779 330.687 48.1222C330.975 47.9664 331.294 47.8504 331.642 47.7741C331.993 47.6946 332.346 47.6316 332.7 47.5852C333.164 47.5256 333.541 47.4808 333.829 47.451C334.121 47.4179 334.333 47.3632 334.465 47.2869C334.601 47.2107 334.669 47.0781 334.669 46.8892V46.8494C334.669 46.3589 334.535 45.9777 334.267 45.706C334.001 45.4342 333.599 45.2983 333.058 45.2983C332.498 45.2983 332.059 45.4209 331.741 45.6662C331.423 45.9115 331.199 46.1733 331.07 46.4517L329.956 46.054C330.155 45.59 330.42 45.2287 330.752 44.9702C331.086 44.7083 331.451 44.526 331.845 44.4233C332.243 44.3172 332.634 44.2642 333.019 44.2642C333.264 44.2642 333.546 44.294 333.864 44.3537C334.185 44.41 334.495 44.5277 334.794 44.7067C335.095 44.8857 335.345 45.1558 335.544 45.517C335.743 45.8783 335.843 46.3622 335.843 46.9688V52H334.669V50.9659H334.61C334.53 51.1316 334.397 51.3089 334.212 51.4979C334.026 51.6868 333.779 51.8475 333.471 51.9801C333.163 52.1127 332.787 52.179 332.343 52.179ZM332.521 51.125C332.985 51.125 333.377 51.0339 333.695 50.8516C334.016 50.6693 334.258 50.4339 334.421 50.1456C334.586 49.8572 334.669 49.554 334.669 49.2358V48.1619C334.619 48.2216 334.51 48.2763 334.341 48.326C334.175 48.3724 333.983 48.4138 333.764 48.4503C333.549 48.4834 333.338 48.5133 333.133 48.5398C332.931 48.563 332.767 48.5829 332.641 48.5994C332.336 48.6392 332.051 48.7038 331.786 48.7933C331.524 48.8795 331.312 49.0104 331.149 49.1861C330.99 49.3584 330.911 49.5937 330.911 49.892C330.911 50.2997 331.061 50.608 331.363 50.8168C331.668 51.0223 332.054 51.125 332.521 51.125ZM339.078 49.2159L339.058 47.7642H339.297L342.637 44.3636H344.089L340.529 47.9631H340.43L339.078 49.2159ZM337.984 52V41.8182H339.157V52H337.984ZM342.836 52L339.853 48.2216L340.689 47.4062L344.328 52H342.836ZM348.487 52.1591C347.751 52.1591 347.116 51.9967 346.582 51.6719C346.052 51.3438 345.643 50.8864 345.354 50.2997C345.069 49.7098 344.927 49.0237 344.927 48.2415C344.927 47.4593 345.069 46.7699 345.354 46.1733C345.643 45.5734 346.044 45.1061 346.558 44.7713C347.075 44.4332 347.678 44.2642 348.367 44.2642C348.765 44.2642 349.158 44.3305 349.545 44.4631C349.933 44.5956 350.286 44.8111 350.604 45.1094C350.923 45.4044 351.176 45.7955 351.365 46.2827C351.554 46.7699 351.648 47.3698 351.648 48.0824V48.5795H345.762V47.5653H350.455C350.455 47.1345 350.369 46.75 350.197 46.4119C350.028 46.0739 349.786 45.8071 349.471 45.6115C349.159 45.416 348.791 45.3182 348.367 45.3182C347.9 45.3182 347.496 45.4342 347.154 45.6662C346.816 45.8949 346.556 46.1932 346.374 46.5611C346.191 46.929 346.1 47.3234 346.1 47.7443V48.4205C346.1 48.9972 346.2 49.486 346.398 49.8871C346.601 50.2848 346.881 50.5881 347.239 50.7969C347.597 51.0024 348.013 51.1051 348.487 51.1051C348.795 51.1051 349.073 51.062 349.322 50.9759C349.574 50.8864 349.791 50.7538 349.973 50.5781C350.155 50.3991 350.296 50.1771 350.396 49.9119L351.529 50.2301C351.41 50.6146 351.209 50.9527 350.928 51.2443C350.646 51.5327 350.298 51.758 349.884 51.9205C349.469 52.0795 349.004 52.1591 348.487 52.1591ZM354.607 47.4062V52H353.433V44.3636H354.567V45.5568H354.666C354.845 45.169 355.117 44.8575 355.482 44.6222C355.846 44.3835 356.317 44.2642 356.893 44.2642C357.411 44.2642 357.863 44.3703 358.251 44.5824C358.638 44.7912 358.94 45.1094 359.156 45.5369C359.371 45.9612 359.479 46.4981 359.479 47.1477V52H358.305V47.2273C358.305 46.6274 358.15 46.16 357.838 45.8253C357.527 45.4872 357.099 45.3182 356.555 45.3182C356.181 45.3182 355.846 45.3994 355.551 45.5618C355.259 45.7242 355.029 45.9612 354.86 46.2727C354.691 46.5843 354.607 46.9621 354.607 47.4062Z" fill="#6A6A6D"/>
<path d="M271.399 78V76.4091L276.321 71.3097C276.847 70.7557 277.28 70.2704 277.621 69.8537C277.966 69.4323 278.224 69.0322 278.395 68.6534C278.565 68.2746 278.651 67.8722 278.651 67.446C278.651 66.9631 278.537 66.5464 278.31 66.196C278.082 65.8409 277.772 65.5687 277.379 65.3793C276.986 65.1851 276.544 65.0881 276.051 65.0881C275.53 65.0881 275.076 65.1946 274.688 65.4077C274.299 65.6207 274.001 65.9214 273.793 66.3097C273.584 66.6979 273.48 67.1525 273.48 67.6733H271.385C271.385 66.7879 271.589 66.0137 271.996 65.3509C272.403 64.688 272.962 64.1742 273.672 63.8097C274.382 63.4403 275.189 63.2557 276.094 63.2557C277.008 63.2557 277.813 63.438 278.509 63.8026C279.209 64.1624 279.756 64.6548 280.149 65.2798C280.542 65.9001 280.739 66.6009 280.739 67.3821C280.739 67.9219 280.637 68.4498 280.433 68.9659C280.234 69.482 279.886 70.0573 279.389 70.6918C278.892 71.3215 278.201 72.0862 277.315 72.9858L274.425 76.0114V76.1179H280.973V78H271.399ZM288.729 78.1989C287.753 78.1989 286.882 78.0308 286.115 77.6946C285.353 77.3584 284.749 76.892 284.304 76.2955C283.864 75.6941 283.627 74.9981 283.594 74.2074H285.824C285.852 74.6383 285.997 75.0123 286.257 75.3295C286.522 75.642 286.868 75.8835 287.294 76.054C287.72 76.2244 288.194 76.3097 288.714 76.3097C289.287 76.3097 289.794 76.2102 290.234 76.0114C290.679 75.8125 291.027 75.5355 291.278 75.1804C291.529 74.8205 291.655 74.4062 291.655 73.9375C291.655 73.4498 291.529 73.0213 291.278 72.652C291.032 72.2779 290.67 71.9844 290.192 71.7713C289.718 71.5582 289.145 71.4517 288.473 71.4517H287.244V69.6619H288.473C289.013 69.6619 289.486 69.5649 289.893 69.3707C290.305 69.1766 290.627 68.9067 290.859 68.5611C291.091 68.2107 291.207 67.8011 291.207 67.3324C291.207 66.8826 291.106 66.492 290.902 66.1605C290.703 65.8243 290.419 65.5616 290.05 65.3722C289.685 65.1828 289.254 65.0881 288.757 65.0881C288.284 65.0881 287.841 65.1757 287.429 65.3509C287.022 65.5213 286.69 65.7675 286.435 66.0895C286.179 66.4067 286.042 66.7879 286.023 67.233H283.899C283.923 66.447 284.155 65.7557 284.595 65.1591C285.04 64.5625 285.627 64.0961 286.357 63.7599C287.086 63.4238 287.895 63.2557 288.786 63.2557C289.718 63.2557 290.523 63.438 291.2 63.8026C291.882 64.1624 292.408 64.643 292.777 65.2443C293.151 65.8456 293.336 66.5038 293.331 67.2188C293.336 68.0331 293.108 68.7244 292.649 69.2926C292.195 69.8608 291.589 70.242 290.831 70.4361V70.5497C291.797 70.6965 292.545 71.08 293.075 71.7003C293.61 72.3205 293.875 73.09 293.871 74.0085C293.875 74.8087 293.653 75.526 293.203 76.1605C292.758 76.795 292.15 77.2945 291.378 77.6591C290.606 78.0189 289.723 78.1989 288.729 78.1989Z" fill="#1E1F21"/>
<defs>
<linearGradient id="paint0_linear_0_340" x1="0.510204" y1="9.9" x2="19.5911" y2="10.5501" gradientUnits="userSpaceOnUse">
<stop stop-color="#8299FF"/>
<stop offset="1" stop-color="#3752C6"/>
</linearGradient>
<linearGradient id="paint1_linear_0_340" x1="136.51" y1="9.9" x2="155.591" y2="10.5501" gradientUnits="userSpaceOnUse">
<stop stop-color="#8299FF"/>
<stop offset="1" stop-color="#3752C6"/>
</linearGradient>
<linearGradient id="paint2_linear_0_340" x1="270.51" y1="9.9" x2="289.591" y2="10.5501" gradientUnits="userSpaceOnUse">
<stop stop-color="#8299FF"/>
<stop offset="1" stop-color="#3752C6"/>
</linearGradient>
</defs>
</svg>
