<svg width="344" height="81" viewBox="0 0 344 81" fill="none" xmlns="http://www.w3.org/2000/svg">
<line x1="230.5" y1="18" x2="230.5" y2="63" stroke="#C9CEE9"/>
<line x1="96.5" y1="18" x2="96.5" y2="63" stroke="#C9CEE9"/>
<circle cx="10" cy="18" r="9" fill="url(#paint0_linear_0_293)"/>
<path d="M14.5 1L17.3999 3.01182L20.9894 3.00532L22.0921 6.25404L25 8.25534L23.8843 11.5L25 14.7447L22.0921 16.746L20.9894 19.9947L17.3999 19.9882L14.5 22L11.6001 19.9882L8.01065 19.9947L6.90794 16.746L4 14.7447L5.1157 11.5L4 8.25534L6.90794 6.25404L8.01065 3.00532L11.6001 3.01182L14.5 1Z" fill="#1A213F"/>
<path d="M10.75 11.8065L13.5572 14.6129L19.1716 9" stroke="white" stroke-width="1.08333" stroke-linecap="round" stroke-linejoin="round"/>
<path d="M1.69877 52V41.8182H5.13912C5.93457 41.8182 6.58751 41.9541 7.09792 42.2259C7.60834 42.4943 7.98618 42.8639 8.23145 43.3345C8.47671 43.8052 8.59934 44.3404 8.59934 44.9403C8.59934 45.5402 8.47671 46.0722 8.23145 46.5362C7.98618 47.0002 7.61 47.3648 7.10289 47.63C6.59579 47.8918 5.94783 48.0227 5.159 48.0227H2.37491V46.9091H5.11923C5.66279 46.9091 6.10029 46.8295 6.43173 46.6705C6.76648 46.5114 7.00843 46.286 7.15758 45.9943C7.31004 45.6993 7.38627 45.348 7.38627 44.9403C7.38627 44.5327 7.31004 44.1764 7.15758 43.8714C7.00512 43.5665 6.76151 43.3312 6.42676 43.1655C6.092 42.9964 5.64953 42.9119 5.09934 42.9119H2.93173V52H1.69877ZM6.49139 47.4261L8.99707 52H7.56525L5.09934 47.4261H6.49139ZM13.6144 52.1591C12.8786 52.1591 12.2439 51.9967 11.7103 51.6719C11.18 51.3438 10.7707 50.8864 10.4823 50.2997C10.1973 49.7098 10.0548 49.0237 10.0548 48.2415C10.0548 47.4593 10.1973 46.7699 10.4823 46.1733C10.7707 45.5734 11.1717 45.1061 11.6855 44.7713C12.2025 44.4332 12.8057 44.2642 13.4951 44.2642C13.8928 44.2642 14.2856 44.3305 14.6734 44.4631C15.0612 44.5956 15.4142 44.8111 15.7323 45.1094C16.0505 45.4044 16.3041 45.7955 16.493 46.2827C16.6819 46.7699 16.7764 47.3698 16.7764 48.0824V48.5795H10.89V47.5653H15.5832C15.5832 47.1345 15.497 46.75 15.3247 46.4119C15.1556 46.0739 14.9137 45.8071 14.5988 45.6115C14.2873 45.416 13.9194 45.3182 13.4951 45.3182C13.0278 45.3182 12.6234 45.4342 12.282 45.6662C11.944 45.8949 11.6838 46.1932 11.5015 46.5611C11.3192 46.929 11.2281 47.3234 11.2281 47.7443V48.4205C11.2281 48.9972 11.3275 49.486 11.5264 49.8871C11.7285 50.2848 12.0086 50.5881 12.3666 50.7969C12.7245 51.0024 13.1405 51.1051 13.6144 51.1051C13.9227 51.1051 14.2011 51.062 14.4497 50.9759C14.7016 50.8864 14.9186 50.7538 15.1009 50.5781C15.2832 50.3991 15.4241 50.1771 15.5235 49.9119L16.657 50.2301C16.5377 50.6146 16.3372 50.9527 16.0555 51.2443C15.7738 51.5327 15.4258 51.758 15.0115 51.9205C14.5972 52.0795 14.1315 52.1591 13.6144 52.1591ZM18.5612 52V44.3636H19.6947V45.5568H19.7941C19.9532 45.1491 20.2101 44.8326 20.5647 44.6072C20.9194 44.3786 21.3453 44.2642 21.8424 44.2642C22.3462 44.2642 22.7655 44.3786 23.1002 44.6072C23.4383 44.8326 23.7018 45.1491 23.8907 45.5568H23.9703C24.1658 45.1624 24.4591 44.8492 24.8502 44.6172C25.2413 44.3819 25.7103 44.2642 26.2572 44.2642C26.94 44.2642 27.4984 44.478 27.9326 44.9055C28.3668 45.3298 28.5839 45.991 28.5839 46.8892V52H27.4106V46.8892C27.4106 46.3258 27.2565 45.9231 26.9482 45.6811C26.64 45.4392 26.2771 45.3182 25.8595 45.3182C25.3225 45.3182 24.9066 45.4806 24.6116 45.8054C24.3166 46.1269 24.1691 46.5346 24.1691 47.0284V52H22.9759V46.7699C22.9759 46.3357 22.8351 45.986 22.5534 45.7209C22.2716 45.4524 21.9087 45.3182 21.4646 45.3182C21.1597 45.3182 20.8746 45.3994 20.6095 45.5618C20.3476 45.7242 20.1355 45.9496 19.9731 46.2379C19.814 46.523 19.7345 46.8527 19.7345 47.2273V52H18.5612ZM30.7291 52V44.3636H31.9024V52H30.7291ZM31.3257 43.0909C31.097 43.0909 30.8998 43.013 30.7341 42.8572C30.5717 42.7015 30.4905 42.5142 30.4905 42.2955C30.4905 42.0767 30.5717 41.8894 30.7341 41.7337C30.8998 41.5779 31.097 41.5 31.3257 41.5C31.5544 41.5 31.75 41.5779 31.9124 41.7337C32.0781 41.8894 32.161 42.0767 32.161 42.2955C32.161 42.5142 32.0781 42.7015 31.9124 42.8572C31.75 43.013 31.5544 43.0909 31.3257 43.0909ZM35.2247 47.4062V52H34.0514V44.3636H35.1849V45.5568H35.2844C35.4633 45.169 35.7351 44.8575 36.0997 44.6222C36.4643 44.3835 36.9349 44.2642 37.5116 44.2642C38.0287 44.2642 38.4811 44.3703 38.8689 44.5824C39.2567 44.7912 39.5583 45.1094 39.7737 45.5369C39.9891 45.9612 40.0969 46.4981 40.0969 47.1477V52H38.9236V47.2273C38.9236 46.6274 38.7678 46.16 38.4562 45.8253C38.1447 45.4872 37.7171 45.3182 37.1736 45.3182C36.799 45.3182 36.4643 45.3994 36.1693 45.5618C35.8776 45.7242 35.6473 45.9612 35.4782 46.2727C35.3092 46.5843 35.2247 46.9621 35.2247 47.4062ZM45.1244 52.1591C44.488 52.1591 43.9262 51.9983 43.439 51.6768C42.9518 51.352 42.5706 50.8946 42.2955 50.3047C42.0204 49.7114 41.8829 49.0104 41.8829 48.2017C41.8829 47.3996 42.0204 46.7036 42.2955 46.1136C42.5706 45.5237 42.9535 45.0679 43.444 44.7464C43.9345 44.425 44.5013 44.2642 45.1443 44.2642C45.6414 44.2642 46.0342 44.3471 46.3225 44.5128C46.6142 44.6752 46.8363 44.8608 46.9887 45.0696C47.1445 45.2751 47.2655 45.4441 47.3517 45.5767H47.4511V41.8182H48.6244V52H47.4909V50.8267H47.3517C47.2655 50.9659 47.1428 51.1416 46.9838 51.3537C46.8247 51.5625 46.5976 51.7498 46.3026 51.9155C46.0077 52.0779 45.6149 52.1591 45.1244 52.1591ZM45.2835 51.1051C45.7541 51.1051 46.1518 50.9825 46.4767 50.7372C46.8015 50.4886 47.0484 50.1456 47.2174 49.7081C47.3865 49.2673 47.471 48.7585 47.471 48.1818C47.471 47.6117 47.3881 47.1129 47.2224 46.6854C47.0567 46.2545 46.8114 45.9197 46.4866 45.6811C46.1618 45.4392 45.7607 45.3182 45.2835 45.3182C44.7863 45.3182 44.372 45.4458 44.0406 45.701C43.7124 45.9529 43.4655 46.2959 43.2998 46.7301C43.1374 47.161 43.0562 47.6449 43.0562 48.1818C43.0562 48.7254 43.1391 49.2192 43.3048 49.6634C43.4738 50.1042 43.7224 50.4555 44.0505 50.7173C44.382 50.9759 44.7929 51.1051 45.2835 51.1051ZM54.1379 52.1591C53.4021 52.1591 52.7674 51.9967 52.2338 51.6719C51.7035 51.3438 51.2941 50.8864 51.0058 50.2997C50.7207 49.7098 50.5782 49.0237 50.5782 48.2415C50.5782 47.4593 50.7207 46.7699 51.0058 46.1733C51.2941 45.5734 51.6952 45.1061 52.2089 44.7713C52.7259 44.4332 53.3292 44.2642 54.0186 44.2642C54.4163 44.2642 54.809 44.3305 55.1968 44.4631C55.5846 44.5956 55.9376 44.8111 56.2558 45.1094C56.574 45.4044 56.8275 45.7955 57.0164 46.2827C57.2053 46.7699 57.2998 47.3698 57.2998 48.0824V48.5795H51.4134V47.5653H56.1066C56.1066 47.1345 56.0204 46.75 55.8481 46.4119C55.6791 46.0739 55.4371 45.8071 55.1222 45.6115C54.8107 45.416 54.4428 45.3182 54.0186 45.3182C53.5512 45.3182 53.1469 45.4342 52.8055 45.6662C52.4674 45.8949 52.2072 46.1932 52.0249 46.5611C51.8427 46.929 51.7515 47.3234 51.7515 47.7443V48.4205C51.7515 48.9972 51.8509 49.486 52.0498 49.8871C52.252 50.2848 52.532 50.5881 52.89 50.7969C53.248 51.0024 53.6639 51.1051 54.1379 51.1051C54.4461 51.1051 54.7245 51.062 54.9731 50.9759C55.225 50.8864 55.4421 50.7538 55.6244 50.5781C55.8067 50.3991 55.9475 50.1771 56.047 49.9119L57.1805 50.2301C57.0612 50.6146 56.8606 50.9527 56.5789 51.2443C56.2972 51.5327 55.9492 51.758 55.5349 51.9205C55.1206 52.0795 54.6549 52.1591 54.1379 52.1591ZM59.0846 52V44.3636H60.2181V45.517H60.2977C60.4369 45.1392 60.6888 44.8326 61.0534 44.5973C61.4179 44.362 61.8289 44.2443 62.2863 44.2443C62.3725 44.2443 62.4802 44.246 62.6095 44.2493C62.7387 44.2526 62.8365 44.2576 62.9028 44.2642V45.4574C62.863 45.4474 62.7719 45.4325 62.6294 45.4126C62.4901 45.3894 62.3427 45.3778 62.1869 45.3778C61.8157 45.3778 61.4842 45.4557 61.1926 45.6115C60.9042 45.764 60.6755 45.9761 60.5065 46.2479C60.3408 46.5163 60.2579 46.8229 60.2579 47.1676V52H59.0846ZM69.7027 46.0739L68.6487 46.3722C68.5824 46.1965 68.4846 46.0258 68.3554 45.8601C68.2294 45.6911 68.0571 45.5518 67.8383 45.4425C67.6196 45.3331 67.3395 45.2784 66.9981 45.2784C66.5308 45.2784 66.1414 45.3861 65.8298 45.6016C65.5216 45.8137 65.3675 46.0838 65.3675 46.4119C65.3675 46.7036 65.4735 46.9339 65.6856 47.103C65.8978 47.272 66.2292 47.4129 66.68 47.5256L67.8135 47.804C68.4962 47.9697 69.005 48.2232 69.3398 48.5646C69.6745 48.9027 69.8419 49.3385 69.8419 49.8722C69.8419 50.3097 69.7159 50.7008 69.464 51.0455C69.2155 51.3902 68.8675 51.6619 68.42 51.8608C67.9726 52.0597 67.4522 52.1591 66.8589 52.1591C66.08 52.1591 65.4354 51.9901 64.925 51.652C64.4146 51.3139 64.0914 50.8201 63.9555 50.1705L65.0692 49.892C65.1752 50.303 65.3757 50.6113 65.6707 50.8168C65.969 51.0223 66.3585 51.125 66.839 51.125C67.3859 51.125 67.8201 51.009 68.1416 50.777C68.4664 50.5417 68.6288 50.2599 68.6288 49.9318C68.6288 49.6667 68.536 49.4446 68.3504 49.2656C68.1648 49.0833 67.8798 48.9474 67.4953 48.858L66.2226 48.5597C65.5232 48.3939 65.0095 48.1371 64.6814 47.7891C64.3566 47.4377 64.1942 46.9986 64.1942 46.4716C64.1942 46.0407 64.3151 45.6596 64.5571 45.3281C64.8023 44.9967 65.1354 44.7365 65.5564 44.5476C65.9806 44.3587 66.4612 44.2642 66.9981 44.2642C67.7538 44.2642 68.3471 44.4299 68.778 44.7614C69.2122 45.0928 69.5204 45.5303 69.7027 46.0739Z" fill="#6A6A6D"/>
<path d="M1.39915 78V76.4091L6.32102 71.3097C6.84659 70.7557 7.27983 70.2704 7.62074 69.8537C7.96638 69.4323 8.22443 69.0322 8.39489 68.6534C8.56534 68.2746 8.65057 67.8722 8.65057 67.446C8.65057 66.9631 8.53693 66.5464 8.30966 66.196C8.08239 65.8409 7.77225 65.5687 7.37926 65.3793C6.98627 65.1851 6.54356 65.0881 6.05114 65.0881C5.5303 65.0881 5.07576 65.1946 4.6875 65.4077C4.29924 65.6207 4.00095 65.9214 3.79261 66.3097C3.58428 66.6979 3.48011 67.1525 3.48011 67.6733H1.38494C1.38494 66.7879 1.58854 66.0137 1.99574 65.3509C2.40294 64.688 2.96165 64.1742 3.67188 63.8097C4.3821 63.4403 5.18939 63.2557 6.09375 63.2557C7.00758 63.2557 7.8125 63.438 8.50852 63.8026C9.20928 64.1624 9.75616 64.6548 10.1491 65.2798C10.5421 65.9001 10.7386 66.6009 10.7386 67.3821C10.7386 67.9219 10.6368 68.4498 10.4332 68.9659C10.2344 69.482 9.88636 70.0573 9.3892 70.6918C8.89205 71.3215 8.20076 72.0862 7.31534 72.9858L4.42472 76.0114V76.1179H10.973V78H1.39915ZM18.7287 78.1989C17.7533 78.1989 16.8821 78.0308 16.1151 77.6946C15.3527 77.3584 14.7491 76.892 14.304 76.2955C13.8636 75.6941 13.6269 74.9981 13.5938 74.2074H15.8239C15.8523 74.6383 15.9967 75.0123 16.2571 75.3295C16.5223 75.642 16.8679 75.8835 17.294 76.054C17.7202 76.2244 18.1937 76.3097 18.7145 76.3097C19.2874 76.3097 19.794 76.2102 20.2344 76.0114C20.6795 75.8125 21.0275 75.5355 21.2784 75.1804C21.5294 74.8205 21.6548 74.4062 21.6548 73.9375C21.6548 73.4498 21.5294 73.0213 21.2784 72.652C21.0322 72.2779 20.67 71.9844 20.1918 71.7713C19.7183 71.5582 19.1454 71.4517 18.473 71.4517H17.2443V69.6619H18.473C19.0128 69.6619 19.4863 69.5649 19.8935 69.3707C20.3054 69.1766 20.6274 68.9067 20.8594 68.5611C21.0914 68.2107 21.2074 67.8011 21.2074 67.3324C21.2074 66.8826 21.1056 66.492 20.902 66.1605C20.7031 65.8243 20.419 65.5616 20.0497 65.3722C19.6851 65.1828 19.2543 65.0881 18.7571 65.0881C18.2836 65.0881 17.8409 65.1757 17.429 65.3509C17.0218 65.5213 16.6903 65.7675 16.4347 66.0895C16.179 66.4067 16.0417 66.7879 16.0227 67.233H13.8991C13.9228 66.447 14.1548 65.7557 14.5952 65.1591C15.0402 64.5625 15.6274 64.0961 16.3565 63.7599C17.0857 63.4238 17.8954 63.2557 18.7855 63.2557C19.7183 63.2557 20.5232 63.438 21.2003 63.8026C21.8821 64.1624 22.4077 64.643 22.777 65.2443C23.151 65.8456 23.3357 66.5038 23.331 67.2188C23.3357 68.0331 23.1084 68.7244 22.6491 69.2926C22.1946 69.8608 21.5885 70.242 20.831 70.4361V70.5497C21.7969 70.6965 22.545 71.08 23.0753 71.7003C23.6103 72.3205 23.8755 73.09 23.8707 74.0085C23.8755 74.8087 23.6529 75.526 23.2031 76.1605C22.758 76.795 22.1496 77.2945 21.3778 77.6591C20.6061 78.0189 19.723 78.1989 18.7287 78.1989Z" fill="#1E1F21"/>
<circle cx="146" cy="18" r="9" fill="url(#paint1_linear_0_293)"/>
<circle cx="146" cy="18" r="9" fill="url(#paint2_linear_0_293)"/>
<path d="M151.001 19.7135C149.794 19.7135 148.66 19.4844 147.599 19.026C146.537 18.5677 145.616 17.949 144.837 17.1698C144.058 16.3906 143.439 15.47 142.98 14.4079C142.522 13.3464 142.293 12.2122 142.293 11.0052C142.293 9.79826 142.522 8.66374 142.98 7.60162C143.439 6.54012 144.058 5.61979 144.837 4.84063C145.616 4.06146 146.537 3.44271 147.599 2.98438C148.66 2.52604 149.794 2.29688 151.001 2.29688C152.208 2.29688 153.343 2.52604 154.405 2.98438C155.466 3.44271 156.387 4.06146 157.166 4.84063C157.945 5.61979 158.564 6.54012 159.022 7.60162C159.48 8.66374 159.71 9.79826 159.71 11.0052C159.71 12.2122 159.48 13.3464 159.022 14.4079C158.564 15.47 157.945 16.3906 157.166 17.1698C156.387 17.949 155.466 18.5677 154.405 19.026C153.343 19.4844 152.208 19.7135 151.001 19.7135Z" fill="white"/>
<path d="M144.974 12.8816C145.361 12.8816 145.688 12.7478 145.955 12.4804C146.222 12.2136 146.355 11.8868 146.355 11.5C146.355 11.1132 146.222 10.7864 145.955 10.5196C145.688 10.2522 145.361 10.1184 144.974 10.1184C144.587 10.1184 144.26 10.2522 143.993 10.5196C143.726 10.7864 143.592 11.1132 143.592 11.5C143.592 11.8868 143.726 12.2136 143.993 12.4804C144.26 12.7478 144.587 12.8816 144.974 12.8816ZM150.5 12.8816C150.887 12.8816 151.214 12.7478 151.48 12.4804C151.748 12.2136 151.882 11.8868 151.882 11.5C151.882 11.1132 151.748 10.7864 151.48 10.5196C151.214 10.2522 150.887 10.1184 150.5 10.1184C150.113 10.1184 149.786 10.2522 149.52 10.5196C149.252 10.7864 149.118 11.1132 149.118 11.5C149.118 11.8868 149.252 12.2136 149.52 12.4804C149.786 12.7478 150.113 12.8816 150.5 12.8816ZM156.026 12.8816C156.413 12.8816 156.74 12.7478 157.008 12.4804C157.275 12.2136 157.408 11.8868 157.408 11.5C157.408 11.1132 157.275 10.7864 157.008 10.5196C156.74 10.2522 156.413 10.1184 156.026 10.1184C155.639 10.1184 155.313 10.2522 155.046 10.5196C154.778 10.7864 154.645 11.1132 154.645 11.5C154.645 11.8868 154.778 12.2136 155.046 12.4804C155.313 12.7478 155.639 12.8816 156.026 12.8816ZM150.5 22C149.045 22 147.677 21.7237 146.397 21.1711C145.117 20.6184 144.007 19.8724 143.067 18.9329C142.128 17.9934 141.382 16.8834 140.829 15.6027C140.276 14.3228 140 12.9553 140 11.5C140 10.0447 140.276 8.67679 140.829 7.39616C141.382 6.11626 142.128 5.00658 143.067 4.06711C144.007 3.12763 145.117 2.38158 146.397 1.82895C147.677 1.27632 149.045 1 150.5 1C151.955 1 153.323 1.27632 154.604 1.82895C155.884 2.38158 156.993 3.12763 157.933 4.06711C158.872 5.00658 159.618 6.11626 160.171 7.39616C160.724 8.67679 161 10.0447 161 11.5C161 12.9553 160.724 14.3228 160.171 15.6027C159.618 16.8834 158.872 17.9934 157.933 18.9329C156.993 19.8724 155.884 20.6184 154.604 21.1711C153.323 21.7237 151.955 22 150.5 22Z" fill="#1A213F"/>
<path d="M138.477 41.8182V52H137.244V41.8182H138.477ZM141.963 47.4062V52H140.79V44.3636H141.923V45.5568H142.023C142.202 45.169 142.473 44.8575 142.838 44.6222C143.203 44.3835 143.673 44.2642 144.25 44.2642C144.767 44.2642 145.219 44.3703 145.607 44.5824C145.995 44.7912 146.297 45.1094 146.512 45.5369C146.727 45.9612 146.835 46.4981 146.835 47.1477V52H145.662V47.2273C145.662 46.6274 145.506 46.16 145.195 45.8253C144.883 45.4872 144.455 45.3182 143.912 45.3182C143.537 45.3182 143.203 45.3994 142.908 45.5618C142.616 45.7242 142.386 45.9612 142.217 46.2727C142.047 46.5843 141.963 46.9621 141.963 47.4062ZM152.917 54.8636V44.3636H154.05V45.5767H154.189C154.276 45.4441 154.395 45.2751 154.547 45.0696C154.703 44.8608 154.925 44.6752 155.214 44.5128C155.505 44.3471 155.9 44.2642 156.397 44.2642C157.04 44.2642 157.607 44.425 158.097 44.7464C158.588 45.0679 158.97 45.5237 159.245 46.1136C159.521 46.7036 159.658 47.3996 159.658 48.2017C159.658 49.0104 159.521 49.7114 159.245 50.3047C158.97 50.8946 158.589 51.352 158.102 51.6768C157.615 51.9983 157.053 52.1591 156.417 52.1591C155.926 52.1591 155.533 52.0779 155.238 51.9155C154.943 51.7498 154.716 51.5625 154.557 51.3537C154.398 51.1416 154.276 50.9659 154.189 50.8267H154.09V54.8636H152.917ZM154.07 48.1818C154.07 48.7585 154.155 49.2673 154.324 49.7081C154.493 50.1456 154.74 50.4886 155.064 50.7372C155.389 50.9825 155.787 51.1051 156.258 51.1051C156.748 51.1051 157.157 50.9759 157.486 50.7173C157.817 50.4555 158.066 50.1042 158.231 49.6634C158.4 49.2192 158.485 48.7254 158.485 48.1818C158.485 47.6449 158.402 47.161 158.236 46.7301C158.074 46.2959 157.827 45.9529 157.495 45.701C157.167 45.4458 156.755 45.3182 156.258 45.3182C155.78 45.3182 155.379 45.4392 155.054 45.6811C154.73 45.9197 154.484 46.2545 154.319 46.6854C154.153 47.1129 154.07 47.6117 154.07 48.1818ZM161.448 52V44.3636H162.581V45.517H162.661C162.8 45.1392 163.052 44.8326 163.417 44.5973C163.781 44.362 164.192 44.2443 164.65 44.2443C164.736 44.2443 164.843 44.246 164.973 44.2493C165.102 44.2526 165.2 44.2576 165.266 44.2642V45.4574C165.226 45.4474 165.135 45.4325 164.993 45.4126C164.853 45.3894 164.706 45.3778 164.55 45.3778C164.179 45.3778 163.848 45.4557 163.556 45.6115C163.267 45.764 163.039 45.9761 162.87 46.2479C162.704 46.5163 162.621 46.8229 162.621 47.1676V52H161.448ZM169.527 52.1591C168.837 52.1591 168.232 51.995 167.712 51.6669C167.195 51.3388 166.791 50.8797 166.499 50.2898C166.211 49.6998 166.066 49.0104 166.066 48.2216C166.066 47.4261 166.211 46.7318 166.499 46.1385C166.791 45.5452 167.195 45.0845 167.712 44.7564C168.232 44.4283 168.837 44.2642 169.527 44.2642C170.216 44.2642 170.819 44.4283 171.336 44.7564C171.857 45.0845 172.261 45.5452 172.549 46.1385C172.841 46.7318 172.987 47.4261 172.987 48.2216C172.987 49.0104 172.841 49.6998 172.549 50.2898C172.261 50.8797 171.857 51.3388 171.336 51.6669C170.819 51.995 170.216 52.1591 169.527 52.1591ZM169.527 51.1051C170.05 51.1051 170.481 50.9709 170.819 50.7024C171.157 50.4339 171.408 50.081 171.57 49.6435C171.732 49.206 171.814 48.732 171.814 48.2216C171.814 47.7112 171.732 47.2356 171.57 46.7947C171.408 46.3539 171.157 45.9976 170.819 45.7259C170.481 45.4541 170.05 45.3182 169.527 45.3182C169.003 45.3182 168.572 45.4541 168.234 45.7259C167.896 45.9976 167.646 46.3539 167.483 46.7947C167.321 47.2356 167.24 47.7112 167.24 48.2216C167.24 48.732 167.321 49.206 167.483 49.6435C167.646 50.081 167.896 50.4339 168.234 50.7024C168.572 50.9709 169.003 51.1051 169.527 51.1051ZM177.86 55.0227C177.294 55.0227 176.806 54.9498 176.399 54.804C175.991 54.6615 175.651 54.4725 175.38 54.2372C175.111 54.0052 174.897 53.7566 174.738 53.4915L175.673 52.8352C175.779 52.9744 175.913 53.1335 176.076 53.3125C176.238 53.4948 176.46 53.6522 176.742 53.7848C177.027 53.9207 177.4 53.9886 177.86 53.9886C178.477 53.9886 178.986 53.8395 179.387 53.5412C179.788 53.2429 179.988 52.7756 179.988 52.1392V50.5881H179.889C179.803 50.7273 179.68 50.8996 179.521 51.1051C179.365 51.3073 179.14 51.4879 178.845 51.647C178.553 51.8028 178.159 51.8807 177.661 51.8807C177.045 51.8807 176.492 51.7348 176.001 51.4432C175.514 51.1515 175.128 50.7273 174.843 50.1705C174.561 49.6136 174.42 48.9375 174.42 48.142C174.42 47.3598 174.558 46.6787 174.833 46.0987C175.108 45.5154 175.491 45.0646 175.981 44.7464C176.472 44.425 177.038 44.2642 177.681 44.2642C178.179 44.2642 178.573 44.3471 178.865 44.5128C179.16 44.6752 179.385 44.8608 179.541 45.0696C179.7 45.2751 179.822 45.4441 179.909 45.5767H180.028V44.3636H181.161V52.2188C181.161 52.875 181.012 53.4086 180.714 53.8196C180.419 54.2339 180.021 54.5372 179.521 54.7294C179.024 54.925 178.47 55.0227 177.86 55.0227ZM177.821 50.8267C178.291 50.8267 178.689 50.719 179.014 50.5036C179.339 50.2881 179.585 49.9782 179.755 49.5739C179.924 49.1695 180.008 48.6856 180.008 48.1222C180.008 47.572 179.925 47.0864 179.759 46.6655C179.594 46.2446 179.349 45.9148 179.024 45.6761C178.699 45.4375 178.298 45.3182 177.821 45.3182C177.323 45.3182 176.909 45.4441 176.578 45.696C176.25 45.9479 176.003 46.286 175.837 46.7102C175.675 47.1345 175.593 47.6051 175.593 48.1222C175.593 48.6525 175.676 49.1214 175.842 49.5291C176.011 49.9335 176.259 50.2517 176.588 50.4837C176.919 50.7124 177.33 50.8267 177.821 50.8267ZM183.309 52V44.3636H184.443V45.517H184.522C184.661 45.1392 184.913 44.8326 185.278 44.5973C185.643 44.362 186.054 44.2443 186.511 44.2443C186.597 44.2443 186.705 44.246 186.834 44.2493C186.963 44.2526 187.061 44.2576 187.127 44.2642V45.4574C187.088 45.4474 186.996 45.4325 186.854 45.4126C186.715 45.3894 186.567 45.3778 186.411 45.3778C186.04 45.3778 185.709 45.4557 185.417 45.6115C185.129 45.764 184.9 45.9761 184.731 46.2479C184.565 46.5163 184.483 46.8229 184.483 47.1676V52H183.309ZM191.487 52.1591C190.752 52.1591 190.117 51.9967 189.583 51.6719C189.053 51.3438 188.644 50.8864 188.355 50.2997C188.07 49.7098 187.928 49.0237 187.928 48.2415C187.928 47.4593 188.07 46.7699 188.355 46.1733C188.644 45.5734 189.045 45.1061 189.559 44.7713C190.076 44.4332 190.679 44.2642 191.368 44.2642C191.766 44.2642 192.159 44.3305 192.546 44.4631C192.934 44.5956 193.287 44.8111 193.605 45.1094C193.924 45.4044 194.177 45.7955 194.366 46.2827C194.555 46.7699 194.649 47.3698 194.649 48.0824V48.5795H188.763V47.5653H193.456C193.456 47.1345 193.37 46.75 193.198 46.4119C193.029 46.0739 192.787 45.8071 192.472 45.6115C192.16 45.416 191.792 45.3182 191.368 45.3182C190.901 45.3182 190.496 45.4342 190.155 45.6662C189.817 45.8949 189.557 46.1932 189.375 46.5611C189.192 46.929 189.101 47.3234 189.101 47.7443V48.4205C189.101 48.9972 189.201 49.486 189.399 49.8871C189.602 50.2848 189.882 50.5881 190.24 50.7969C190.598 51.0024 191.014 51.1051 191.487 51.1051C191.796 51.1051 192.074 51.062 192.323 50.9759C192.575 50.8864 192.792 50.7538 192.974 50.5781C193.156 50.3991 193.297 50.1771 193.397 49.9119L194.53 50.2301C194.411 50.6146 194.21 50.9527 193.929 51.2443C193.647 51.5327 193.299 51.758 192.884 51.9205C192.47 52.0795 192.005 52.1591 191.487 52.1591ZM201.843 46.0739L200.789 46.3722C200.723 46.1965 200.625 46.0258 200.496 45.8601C200.37 45.6911 200.198 45.5518 199.979 45.4425C199.76 45.3331 199.48 45.2784 199.139 45.2784C198.671 45.2784 198.282 45.3861 197.97 45.6016C197.662 45.8137 197.508 46.0838 197.508 46.4119C197.508 46.7036 197.614 46.9339 197.826 47.103C198.038 47.272 198.37 47.4129 198.821 47.5256L199.954 47.804C200.637 47.9697 201.146 48.2232 201.48 48.5646C201.815 48.9027 201.983 49.3385 201.983 49.8722C201.983 50.3097 201.857 50.7008 201.605 51.0455C201.356 51.3902 201.008 51.6619 200.561 51.8608C200.113 52.0597 199.593 52.1591 199 52.1591C198.221 52.1591 197.576 51.9901 197.066 51.652C196.555 51.3139 196.232 50.8201 196.096 50.1705L197.21 49.892C197.316 50.303 197.516 50.6113 197.811 50.8168C198.11 51.0223 198.499 51.125 198.98 51.125C199.527 51.125 199.961 51.009 200.282 50.777C200.607 50.5417 200.769 50.2599 200.769 49.9318C200.769 49.6667 200.677 49.4446 200.491 49.2656C200.305 49.0833 200.02 48.9474 199.636 48.858L198.363 48.5597C197.664 48.3939 197.15 48.1371 196.822 47.7891C196.497 47.4377 196.335 46.9986 196.335 46.4716C196.335 46.0407 196.456 45.6596 196.698 45.3281C196.943 44.9967 197.276 44.7365 197.697 44.5476C198.121 44.3587 198.602 44.2642 199.139 44.2642C199.894 44.2642 200.488 44.4299 200.919 44.7614C201.353 45.0928 201.661 45.5303 201.843 46.0739ZM209.158 46.0739L208.104 46.3722C208.037 46.1965 207.94 46.0258 207.81 45.8601C207.685 45.6911 207.512 45.5518 207.293 45.4425C207.075 45.3331 206.795 45.2784 206.453 45.2784C205.986 45.2784 205.596 45.3861 205.285 45.6016C204.977 45.8137 204.823 46.0838 204.823 46.4119C204.823 46.7036 204.929 46.9339 205.141 47.103C205.353 47.272 205.684 47.4129 206.135 47.5256L207.269 47.804C207.951 47.9697 208.46 48.2232 208.795 48.5646C209.13 48.9027 209.297 49.3385 209.297 49.8722C209.297 50.3097 209.171 50.7008 208.919 51.0455C208.671 51.3902 208.323 51.6619 207.875 51.8608C207.428 52.0597 206.907 52.1591 206.314 52.1591C205.535 52.1591 204.89 51.9901 204.38 51.652C203.87 51.3139 203.546 50.8201 203.411 50.1705L204.524 49.892C204.63 50.303 204.831 50.6113 205.126 50.8168C205.424 51.0223 205.814 51.125 206.294 51.125C206.841 51.125 207.275 51.009 207.597 50.777C207.921 50.5417 208.084 50.2599 208.084 49.9318C208.084 49.6667 207.991 49.4446 207.805 49.2656C207.62 49.0833 207.335 48.9474 206.95 48.858L205.678 48.5597C204.978 48.3939 204.465 48.1371 204.136 47.7891C203.812 47.4377 203.649 46.9986 203.649 46.4716C203.649 46.0407 203.77 45.6596 204.012 45.3281C204.257 44.9967 204.591 44.7365 205.011 44.5476C205.436 44.3587 205.916 44.2642 206.453 44.2642C207.209 44.2642 207.802 44.4299 208.233 44.7614C208.667 45.0928 208.975 45.5303 209.158 46.0739Z" fill="#6A6A6D"/>
<path d="M137.399 78V76.4091L142.321 71.3097C142.847 70.7557 143.28 70.2704 143.621 69.8537C143.966 69.4323 144.224 69.0322 144.395 68.6534C144.565 68.2746 144.651 67.8722 144.651 67.446C144.651 66.9631 144.537 66.5464 144.31 66.196C144.082 65.8409 143.772 65.5687 143.379 65.3793C142.986 65.1851 142.544 65.0881 142.051 65.0881C141.53 65.0881 141.076 65.1946 140.688 65.4077C140.299 65.6207 140.001 65.9214 139.793 66.3097C139.584 66.6979 139.48 67.1525 139.48 67.6733H137.385C137.385 66.7879 137.589 66.0137 137.996 65.3509C138.403 64.688 138.962 64.1742 139.672 63.8097C140.382 63.4403 141.189 63.2557 142.094 63.2557C143.008 63.2557 143.813 63.438 144.509 63.8026C145.209 64.1624 145.756 64.6548 146.149 65.2798C146.542 65.9001 146.739 66.6009 146.739 67.3821C146.739 67.9219 146.637 68.4498 146.433 68.9659C146.234 69.482 145.886 70.0573 145.389 70.6918C144.892 71.3215 144.201 72.0862 143.315 72.9858L140.425 76.0114V76.1179H146.973V78H137.399ZM154.729 78.1989C153.753 78.1989 152.882 78.0308 152.115 77.6946C151.353 77.3584 150.749 76.892 150.304 76.2955C149.864 75.6941 149.627 74.9981 149.594 74.2074H151.824C151.852 74.6383 151.997 75.0123 152.257 75.3295C152.522 75.642 152.868 75.8835 153.294 76.054C153.72 76.2244 154.194 76.3097 154.714 76.3097C155.287 76.3097 155.794 76.2102 156.234 76.0114C156.679 75.8125 157.027 75.5355 157.278 75.1804C157.529 74.8205 157.655 74.4062 157.655 73.9375C157.655 73.4498 157.529 73.0213 157.278 72.652C157.032 72.2779 156.67 71.9844 156.192 71.7713C155.718 71.5582 155.145 71.4517 154.473 71.4517H153.244V69.6619H154.473C155.013 69.6619 155.486 69.5649 155.893 69.3707C156.305 69.1766 156.627 68.9067 156.859 68.5611C157.091 68.2107 157.207 67.8011 157.207 67.3324C157.207 66.8826 157.106 66.492 156.902 66.1605C156.703 65.8243 156.419 65.5616 156.05 65.3722C155.685 65.1828 155.254 65.0881 154.757 65.0881C154.284 65.0881 153.841 65.1757 153.429 65.3509C153.022 65.5213 152.69 65.7675 152.435 66.0895C152.179 66.4067 152.042 66.7879 152.023 67.233H149.899C149.923 66.447 150.155 65.7557 150.595 65.1591C151.04 64.5625 151.627 64.0961 152.357 63.7599C153.086 63.4238 153.895 63.2557 154.786 63.2557C155.718 63.2557 156.523 63.438 157.2 63.8026C157.882 64.1624 158.408 64.643 158.777 65.2443C159.151 65.8456 159.336 66.5038 159.331 67.2188C159.336 68.0331 159.108 68.7244 158.649 69.2926C158.195 69.8608 157.589 70.242 156.831 70.4361V70.5497C157.797 70.6965 158.545 71.08 159.075 71.7003C159.61 72.3205 159.875 73.09 159.871 74.0085C159.875 74.8087 159.653 75.526 159.203 76.1605C158.758 76.795 158.15 77.2945 157.378 77.6591C156.606 78.0189 155.723 78.1989 154.729 78.1989Z" fill="#1E1F21"/>
<circle cx="280" cy="18" r="9" fill="url(#paint3_linear_0_293)"/>
<path d="M284.5 22C283.045 22 281.677 21.7237 280.397 21.1711C279.117 20.6184 278.007 19.8724 277.067 18.9329C276.128 17.9934 275.382 16.8834 274.829 15.6027C274.276 14.3228 274 12.9553 274 11.5C274 10.0447 274.276 8.67679 274.829 7.39616C275.382 6.11626 276.128 5.00658 277.067 4.06711C278.007 3.12763 279.117 2.38158 280.397 1.82895C281.677 1.27632 283.045 1 284.5 1C285.955 1 287.323 1.27632 288.604 1.82895C289.884 2.38158 290.993 3.12763 291.933 4.06711C292.872 5.00658 293.618 6.11626 294.171 7.39616C294.724 8.67679 295 10.0447 295 11.5C295 12.9553 294.724 14.3228 294.171 15.6027C293.618 16.8834 292.872 17.9934 291.933 18.9329C290.993 19.8724 289.884 20.6184 288.604 21.1711C287.323 21.7237 285.955 22 284.5 22Z" fill="#1A213F"/>
<mask id="mask0_0_293" style="mask-type:alpha" maskUnits="userSpaceOnUse" x="278" y="5" width="13" height="13">
<rect x="278" y="5" width="13" height="13" fill="#D9D9D9"/>
</mask>
<g mask="url(#mask0_0_293)">
<path d="M280.166 15.2943V14.2109H281.249V10.4193C281.249 9.66997 281.475 9.00408 281.926 8.4216C282.378 7.83949 282.965 7.45816 283.687 7.2776V6.89844C283.687 6.67274 283.766 6.48099 283.924 6.32319C284.082 6.16502 284.274 6.08594 284.499 6.08594C284.725 6.08594 284.917 6.16502 285.075 6.32319C285.233 6.48099 285.312 6.67274 285.312 6.89844V7.2776C286.034 7.45816 286.621 7.83949 287.072 8.4216C287.524 9.00408 287.749 9.66997 287.749 10.4193V14.2109H288.833V15.2943H280.166ZM284.499 16.9193C284.201 16.9193 283.946 16.8133 283.735 16.6013C283.522 16.389 283.416 16.1339 283.416 15.8359H285.583C285.583 16.1339 285.477 16.389 285.265 16.6013C285.052 16.8133 284.797 16.9193 284.499 16.9193Z" fill="white"/>
</g>
<path d="M270.755 42.9119V41.8182H278.392V42.9119H275.19V52H273.957V42.9119H270.755ZM282.13 52.1591C281.441 52.1591 280.836 51.995 280.316 51.6669C279.799 51.3388 279.394 50.8797 279.103 50.2898C278.814 49.6998 278.67 49.0104 278.67 48.2216C278.67 47.4261 278.814 46.7318 279.103 46.1385C279.394 45.5452 279.799 45.0845 280.316 44.7564C280.836 44.4283 281.441 44.2642 282.13 44.2642C282.82 44.2642 283.423 44.4283 283.94 44.7564C284.46 45.0845 284.865 45.5452 285.153 46.1385C285.445 46.7318 285.59 47.4261 285.59 48.2216C285.59 49.0104 285.445 49.6998 285.153 50.2898C284.865 50.8797 284.46 51.3388 283.94 51.6669C283.423 51.995 282.82 52.1591 282.13 52.1591ZM282.13 51.1051C282.654 51.1051 283.085 50.9709 283.423 50.7024C283.761 50.4339 284.011 50.081 284.174 49.6435C284.336 49.206 284.417 48.732 284.417 48.2216C284.417 47.7112 284.336 47.2356 284.174 46.7947C284.011 46.3539 283.761 45.9976 283.423 45.7259C283.085 45.4541 282.654 45.3182 282.13 45.3182C281.607 45.3182 281.176 45.4541 280.838 45.7259C280.5 45.9976 280.249 46.3539 280.087 46.7947C279.925 47.2356 279.843 47.7112 279.843 48.2216C279.843 48.732 279.925 49.206 280.087 49.6435C280.249 50.081 280.5 50.4339 280.838 50.7024C281.176 50.9709 281.607 51.1051 282.13 51.1051ZM293.566 52.179C293.082 52.179 292.643 52.0878 292.249 51.9055C291.854 51.7199 291.541 51.4531 291.309 51.1051C291.077 50.7538 290.961 50.3295 290.961 49.8324C290.961 49.3949 291.047 49.0402 291.22 48.7685C291.392 48.4934 291.622 48.2779 291.911 48.1222C292.199 47.9664 292.517 47.8504 292.865 47.7741C293.216 47.6946 293.569 47.6316 293.924 47.5852C294.388 47.5256 294.764 47.4808 295.053 47.451C295.344 47.4179 295.556 47.3632 295.689 47.2869C295.825 47.2107 295.893 47.0781 295.893 46.8892V46.8494C295.893 46.3589 295.759 45.9777 295.49 45.706C295.225 45.4342 294.822 45.2983 294.282 45.2983C293.722 45.2983 293.283 45.4209 292.965 45.6662C292.646 45.9115 292.423 46.1733 292.293 46.4517L291.18 46.054C291.379 45.59 291.644 45.2287 291.975 44.9702C292.31 44.7083 292.675 44.526 293.069 44.4233C293.467 44.3172 293.858 44.2642 294.242 44.2642C294.488 44.2642 294.769 44.294 295.087 44.3537C295.409 44.41 295.719 44.5277 296.017 44.7067C296.319 44.8857 296.569 45.1558 296.768 45.517C296.967 45.8783 297.066 46.3622 297.066 46.9688V52H295.893V50.9659H295.833C295.754 51.1316 295.621 51.3089 295.435 51.4979C295.25 51.6868 295.003 51.8475 294.695 51.9801C294.386 52.1127 294.01 52.179 293.566 52.179ZM293.745 51.125C294.209 51.125 294.6 51.0339 294.918 50.8516C295.24 50.6693 295.482 50.4339 295.644 50.1456C295.81 49.8572 295.893 49.554 295.893 49.2358V48.1619C295.843 48.2216 295.734 48.2763 295.565 48.326C295.399 48.3724 295.207 48.4138 294.988 48.4503C294.773 48.4834 294.562 48.5133 294.357 48.5398C294.154 48.563 293.99 48.5829 293.864 48.5994C293.56 48.6392 293.274 48.7038 293.009 48.7933C292.747 48.8795 292.535 49.0104 292.373 49.1861C292.214 49.3584 292.134 49.5937 292.134 49.892C292.134 50.2997 292.285 50.608 292.587 50.8168C292.892 51.0223 293.278 51.125 293.745 51.125ZM299.208 54.8636V44.3636H300.341V45.5767H300.48C300.567 45.4441 300.686 45.2751 300.838 45.0696C300.994 44.8608 301.216 44.6752 301.505 44.5128C301.796 44.3471 302.191 44.2642 302.688 44.2642C303.331 44.2642 303.898 44.425 304.388 44.7464C304.879 45.0679 305.261 45.5237 305.536 46.1136C305.812 46.7036 305.949 47.3996 305.949 48.2017C305.949 49.0104 305.812 49.7114 305.536 50.3047C305.261 50.8946 304.88 51.352 304.393 51.6768C303.906 51.9983 303.344 52.1591 302.708 52.1591C302.217 52.1591 301.824 52.0779 301.529 51.9155C301.234 51.7498 301.007 51.5625 300.848 51.3537C300.689 51.1416 300.567 50.9659 300.48 50.8267H300.381V54.8636H299.208ZM300.361 48.1818C300.361 48.7585 300.446 49.2673 300.615 49.7081C300.784 50.1456 301.031 50.4886 301.355 50.7372C301.68 50.9825 302.078 51.1051 302.549 51.1051C303.039 51.1051 303.448 50.9759 303.777 50.7173C304.108 50.4555 304.357 50.1042 304.522 49.6634C304.691 49.2192 304.776 48.7254 304.776 48.1818C304.776 47.6449 304.693 47.161 304.527 46.7301C304.365 46.2959 304.118 45.9529 303.786 45.701C303.458 45.4458 303.046 45.3182 302.549 45.3182C302.071 45.3182 301.67 45.4392 301.345 45.6811C301.021 45.9197 300.775 46.2545 300.61 46.6854C300.444 47.1129 300.361 47.6117 300.361 48.1818ZM307.739 54.8636V44.3636H308.872V45.5767H309.012C309.098 45.4441 309.217 45.2751 309.37 45.0696C309.525 44.8608 309.747 44.6752 310.036 44.5128C310.327 44.3471 310.722 44.2642 311.219 44.2642C311.862 44.2642 312.429 44.425 312.919 44.7464C313.41 45.0679 313.793 45.5237 314.068 46.1136C314.343 46.7036 314.48 47.3996 314.48 48.2017C314.48 49.0104 314.343 49.7114 314.068 50.3047C313.793 50.8946 313.411 51.352 312.924 51.6768C312.437 51.9983 311.875 52.1591 311.239 52.1591C310.748 52.1591 310.356 52.0779 310.061 51.9155C309.766 51.7498 309.539 51.5625 309.38 51.3537C309.22 51.1416 309.098 50.9659 309.012 50.8267H308.912V54.8636H307.739ZM308.892 48.1818C308.892 48.7585 308.977 49.2673 309.146 49.7081C309.315 50.1456 309.562 50.4886 309.887 50.7372C310.211 50.9825 310.609 51.1051 311.08 51.1051C311.57 51.1051 311.98 50.9759 312.308 50.7173C312.639 50.4555 312.888 50.1042 313.054 49.6634C313.223 49.2192 313.307 48.7254 313.307 48.1818C313.307 47.6449 313.224 47.161 313.059 46.7301C312.896 46.2959 312.649 45.9529 312.318 45.701C311.99 45.4458 311.577 45.3182 311.08 45.3182C310.603 45.3182 310.201 45.4392 309.877 45.6811C309.552 45.9197 309.307 46.2545 309.141 46.6854C308.975 47.1129 308.892 47.6117 308.892 48.1818ZM316.27 52V44.3636H317.404V45.517H317.483C317.622 45.1392 317.874 44.8326 318.239 44.5973C318.603 44.362 319.014 44.2443 319.472 44.2443C319.558 44.2443 319.666 44.246 319.795 44.2493C319.924 44.2526 320.022 44.2576 320.088 44.2642V45.4574C320.049 45.4474 319.957 45.4325 319.815 45.4126C319.676 45.3894 319.528 45.3778 319.372 45.3778C319.001 45.3778 318.67 45.4557 318.378 45.6115C318.09 45.764 317.861 45.9761 317.692 46.2479C317.526 46.5163 317.443 46.8229 317.443 47.1676V52H316.27ZM324.349 52.1591C323.66 52.1591 323.055 51.995 322.534 51.6669C322.017 51.3388 321.613 50.8797 321.321 50.2898C321.033 49.6998 320.889 49.0104 320.889 48.2216C320.889 47.4261 321.033 46.7318 321.321 46.1385C321.613 45.5452 322.017 45.0845 322.534 44.7564C323.055 44.4283 323.66 44.2642 324.349 44.2642C325.038 44.2642 325.642 44.4283 326.159 44.7564C326.679 45.0845 327.083 45.5452 327.372 46.1385C327.663 46.7318 327.809 47.4261 327.809 48.2216C327.809 49.0104 327.663 49.6998 327.372 50.2898C327.083 50.8797 326.679 51.3388 326.159 51.6669C325.642 51.995 325.038 52.1591 324.349 52.1591ZM324.349 51.1051C324.873 51.1051 325.304 50.9709 325.642 50.7024C325.98 50.4339 326.23 50.081 326.392 49.6435C326.555 49.206 326.636 48.732 326.636 48.2216C326.636 47.7112 326.555 47.2356 326.392 46.7947C326.23 46.3539 325.98 45.9976 325.642 45.7259C325.304 45.4541 324.873 45.3182 324.349 45.3182C323.825 45.3182 323.394 45.4541 323.056 45.7259C322.718 45.9976 322.468 46.3539 322.306 46.7947C322.143 47.2356 322.062 47.7112 322.062 48.2216C322.062 48.732 322.143 49.206 322.306 49.6435C322.468 50.081 322.718 50.4339 323.056 50.7024C323.394 50.9709 323.825 51.1051 324.349 51.1051ZM335.571 44.3636L332.747 52H331.554L328.73 44.3636H330.003L332.111 50.4489H332.19L334.298 44.3636H335.571ZM340.048 52.1591C339.312 52.1591 338.678 51.9967 338.144 51.6719C337.614 51.3438 337.204 50.8864 336.916 50.2997C336.631 49.7098 336.488 49.0237 336.488 48.2415C336.488 47.4593 336.631 46.7699 336.916 46.1733C337.204 45.5734 337.605 45.1061 338.119 44.7713C338.636 44.4332 339.239 44.2642 339.929 44.2642C340.326 44.2642 340.719 44.3305 341.107 44.4631C341.495 44.5956 341.848 44.8111 342.166 45.1094C342.484 45.4044 342.738 45.7955 342.927 46.2827C343.116 46.7699 343.21 47.3698 343.21 48.0824V48.5795H337.324V47.5653H342.017C342.017 47.1345 341.931 46.75 341.758 46.4119C341.589 46.0739 341.347 45.8071 341.032 45.6115C340.721 45.416 340.353 45.3182 339.929 45.3182C339.461 45.3182 339.057 45.4342 338.716 45.6662C338.378 45.8949 338.117 46.1932 337.935 46.5611C337.753 46.929 337.662 47.3234 337.662 47.7443V48.4205C337.662 48.9972 337.761 49.486 337.96 49.8871C338.162 50.2848 338.442 50.5881 338.8 50.7969C339.158 51.0024 339.574 51.1051 340.048 51.1051C340.356 51.1051 340.635 51.062 340.883 50.9759C341.135 50.8864 341.352 50.7538 341.535 50.5781C341.717 50.3991 341.858 50.1771 341.957 49.9119L343.091 50.2301C342.971 50.6146 342.771 50.9527 342.489 51.2443C342.207 51.5327 341.859 51.758 341.445 51.9205C341.031 52.0795 340.565 52.1591 340.048 52.1591Z" fill="#6A6A6D"/>
<path d="M271.399 78V76.4091L276.321 71.3097C276.847 70.7557 277.28 70.2704 277.621 69.8537C277.966 69.4323 278.224 69.0322 278.395 68.6534C278.565 68.2746 278.651 67.8722 278.651 67.446C278.651 66.9631 278.537 66.5464 278.31 66.196C278.082 65.8409 277.772 65.5687 277.379 65.3793C276.986 65.1851 276.544 65.0881 276.051 65.0881C275.53 65.0881 275.076 65.1946 274.688 65.4077C274.299 65.6207 274.001 65.9214 273.793 66.3097C273.584 66.6979 273.48 67.1525 273.48 67.6733H271.385C271.385 66.7879 271.589 66.0137 271.996 65.3509C272.403 64.688 272.962 64.1742 273.672 63.8097C274.382 63.4403 275.189 63.2557 276.094 63.2557C277.008 63.2557 277.813 63.438 278.509 63.8026C279.209 64.1624 279.756 64.6548 280.149 65.2798C280.542 65.9001 280.739 66.6009 280.739 67.3821C280.739 67.9219 280.637 68.4498 280.433 68.9659C280.234 69.482 279.886 70.0573 279.389 70.6918C278.892 71.3215 278.201 72.0862 277.315 72.9858L274.425 76.0114V76.1179H280.973V78H271.399ZM288.729 78.1989C287.753 78.1989 286.882 78.0308 286.115 77.6946C285.353 77.3584 284.749 76.892 284.304 76.2955C283.864 75.6941 283.627 74.9981 283.594 74.2074H285.824C285.852 74.6383 285.997 75.0123 286.257 75.3295C286.522 75.642 286.868 75.8835 287.294 76.054C287.72 76.2244 288.194 76.3097 288.714 76.3097C289.287 76.3097 289.794 76.2102 290.234 76.0114C290.679 75.8125 291.027 75.5355 291.278 75.1804C291.529 74.8205 291.655 74.4062 291.655 73.9375C291.655 73.4498 291.529 73.0213 291.278 72.652C291.032 72.2779 290.67 71.9844 290.192 71.7713C289.718 71.5582 289.145 71.4517 288.473 71.4517H287.244V69.6619H288.473C289.013 69.6619 289.486 69.5649 289.893 69.3707C290.305 69.1766 290.627 68.9067 290.859 68.5611C291.091 68.2107 291.207 67.8011 291.207 67.3324C291.207 66.8826 291.106 66.492 290.902 66.1605C290.703 65.8243 290.419 65.5616 290.05 65.3722C289.685 65.1828 289.254 65.0881 288.757 65.0881C288.284 65.0881 287.841 65.1757 287.429 65.3509C287.022 65.5213 286.69 65.7675 286.435 66.0895C286.179 66.4067 286.042 66.7879 286.023 67.233H283.899C283.923 66.447 284.155 65.7557 284.595 65.1591C285.04 64.5625 285.627 64.0961 286.357 63.7599C287.086 63.4238 287.895 63.2557 288.786 63.2557C289.718 63.2557 290.523 63.438 291.2 63.8026C291.882 64.1624 292.408 64.643 292.777 65.2443C293.151 65.8456 293.336 66.5038 293.331 67.2188C293.336 68.0331 293.108 68.7244 292.649 69.2926C292.195 69.8608 291.589 70.242 290.831 70.4361V70.5497C291.797 70.6965 292.545 71.08 293.075 71.7003C293.61 72.3205 293.875 73.09 293.871 74.0085C293.875 74.8087 293.653 75.526 293.203 76.1605C292.758 76.795 292.15 77.2945 291.378 77.6591C290.606 78.0189 289.723 78.1989 288.729 78.1989Z" fill="#1E1F21"/>
<defs>
<linearGradient id="paint0_linear_0_293" x1="0.510204" y1="9.9" x2="19.5911" y2="10.5501" gradientUnits="userSpaceOnUse">
<stop stop-color="#8299FF"/>
<stop offset="1" stop-color="#3752C6"/>
</linearGradient>
<linearGradient id="paint1_linear_0_293" x1="136.51" y1="9.9" x2="155.591" y2="10.5501" gradientUnits="userSpaceOnUse">
<stop stop-color="#8299FF"/>
<stop offset="1" stop-color="#3752C6"/>
</linearGradient>
<linearGradient id="paint2_linear_0_293" x1="136.51" y1="9.9" x2="155.591" y2="10.5501" gradientUnits="userSpaceOnUse">
<stop stop-color="#8299FF"/>
<stop offset="1" stop-color="#3752C6"/>
</linearGradient>
<linearGradient id="paint3_linear_0_293" x1="270.51" y1="9.9" x2="289.591" y2="10.5501" gradientUnits="userSpaceOnUse">
<stop stop-color="#8299FF"/>
<stop offset="1" stop-color="#3752C6"/>
</linearGradient>
</defs>
</svg>
